<?xml version="1.0" encoding="utf-8"?>
<!-- Generator: Adobe Illustrator 19.0.1, SVG Export Plug-In . SVG Version: 6.00 Build 0)  -->
<!DOCTYPE svg PUBLIC "-//W3C//DTD SVG 1.1//EN" "http://www.w3.org/Graphics/SVG/1.1/DTD/svg11.dtd">
<svg version="1.1" id="Layer_1" xmlns="http://www.w3.org/2000/svg" xmlns:xlink="http://www.w3.org/1999/xlink" x="0px" y="0px"
	 viewBox="-278 370 54 54" style="enable-background:new -278 370 54 54;" xml:space="preserve">
<style type="text/css">
	.st0{fill:#FAA31A;}
</style>
<path class="st0" d="M-233.2,410.6l-11.3-11.4l0.6-1.2c0.3-0.6,0.6-1.3,0.8-2c0.7-2.2,0.7-4.7,0-7c-0.5-1.7-1.4-3.4-2.7-4.8
	c-1.4-1.5-3.3-2.7-5.4-3.3c-0.9-0.2-2-0.4-3-0.4c-1.2-0.1-2.5,0.2-3.6,0.4c-1.9,0.5-3.6,1.5-4.9,2.8c-0.9,0.8-1.5,1.7-2.1,2.7
	c0,0.1-0.1,0.2-0.2,0.3c-0.5,0.9-0.9,2-1.2,2.9v0.2c-0.2,0.9-0.3,1.6-0.3,2.4c0,1.2,0.2,2.2,0.4,3.3l0.1,0.2c0.3,0.9,0.7,2,1.2,2.9
	l0.2,0.3c0.4,0.7,0.9,1.3,1.4,1.9c1.9,2,4.3,3.2,6.9,3.6c1.2,0.2,2.3,0.2,3.6,0c1.1-0.2,2.1-0.4,3.1-0.9l1.2-0.5l11.4,11.5
	c0.3,0.3,0.8,0.6,1.2,0.7c0.1,0,0.2,0,0.2,0.1c0.2,0.1,0.4,0.1,0.4,0.1c0.7,0,1.4-0.3,1.9-0.8l0.3-0.3c0.5-0.5,0.8-1.2,0.8-1.9
	C-232.4,411.8-232.7,411.1-233.2,410.6z M-254.6,401.3c-4.9,0-8.8-3.9-8.8-8.8c0-4.9,3.9-8.8,8.8-8.8s8.8,3.9,8.8,8.8
	C-245.7,397.4-249.7,401.3-254.6,401.3z"/>
</svg>
