<?xml version="1.0" encoding="utf-8"?>
<!-- Generator: Adobe Illustrator 19.0.1, SVG Export Plug-In . SVG Version: 6.00 Build 0)  -->
<!DOCTYPE svg PUBLIC "-//W3C//DTD SVG 1.1//EN" "http://www.w3.org/Graphics/SVG/1.1/DTD/svg11.dtd">
<svg version="1.1" id="Layer_1" xmlns="http://www.w3.org/2000/svg" xmlns:xlink="http://www.w3.org/1999/xlink" x="0px" y="0px"
	 viewBox="-280 364.6 50.6 64.4" style="enable-background:new -280 364.6 50.6 64.4;" xml:space="preserve">
<style type="text/css">
	.st0{fill:#FAA31A;}
</style>
<path class="st0" d="M-238.1,401.3c0,4.4-4.1,8.8-6.5,10.6c-3.9,3.4-7.7,5.3-8.9,5.5c-1.2-0.3-5.1-2.1-8.9-5.5
	c-2.4-2.2-6.5-6.3-6.5-10.6v-19.7c5.5-0.6,10.8-2.2,15.4-5c4.9,2.8,10,4.5,15.5,5.1L-238.1,401.3L-238.1,401.3z M-234.4,378
	c-6.7,0-13.3-2-19.1-5.9c-5.7,3.9-12.7,5.8-19.4,5.9l0,0v23.2c0,10.6,15.7,20.2,19.4,20.2s19.4-9.4,19.4-20.2V378l0,0
	C-234.3,378-234.3,378-234.4,378z"/>
<g>
	<path class="st0" d="M-240.2,384c-4.7-0.1-9.3-1.5-13.3-4.2c-3.8,2.5-8.5,3.9-13.3,4.2v16.1c0,7.3,10.8,13.8,13.3,13.8
		s13.3-6.5,13.3-13.8L-240.2,384L-240.2,384z M-241.7,400c0,3.5-3.1,6.7-5,8.2c-3,2.6-5.8,3.9-6.7,4.1h-0.2h-0.2
		c-0.8-0.3-3.7-1.5-6.7-4.1c-1.8-1.6-5-4.9-5-8.2v-14.7l0.6-0.1c3.8-0.3,7.6-1.6,10.9-3.6l0.3-0.3l0.3,0.3c3.4,2,7.1,3.2,10.9,3.6
		l0.6,0.1V400H-241.7z"/>
</g>
<path class="st0" d="M-244.1,387.6c-2,2.2-3.8,4.4-5.6,6.7c-1.7,2.3-3.3,4.7-4.7,7.3c-0.1,0.2-0.3,0.4-0.3,0.7
	c-0.4,0.9-1.3,1.5-2.2,1.5c-0.3,0-0.7-0.1-0.9-0.2c-0.3-0.1-0.4-0.3-0.7-0.6c-0.2-0.3-0.3-0.5-0.4-0.9c-0.2-0.3-0.3-0.9-0.5-1.7
	c0-0.1,0-0.1-0.1-0.2c-0.3-0.8-0.3-1.4-0.3-1.6c0-0.4,0.3-0.8,0.7-1.3c0.5-0.3,0.9-0.5,1.6-0.5c0.2,0,0.3,0.1,0.3,0.2
	c0.1,0.1,0.3,0.3,0.3,0.6c0.1,0.2,0.2,0.4,0.3,0.7c0.3,0.7,0.4,1.1,0.7,1.1c0.2,0,0.7-0.8,1.8-2.5c0.9-1.6,1.8-3,2.6-4
	c0.9-1.6,1.7-2.6,2.2-3.3s0.9-1.3,1.5-1.6c0.3-0.3,0.8-0.5,1.5-0.7c0.6-0.2,1.3-0.3,2.2-0.3L-244.1,387.6z"/>
</svg>
