<?xml version="1.0" encoding="utf-8"?>
<!-- Generator: Adobe Illustrator 19.0.1, SVG Export Plug-In . SVG Version: 6.00 Build 0)  -->
<!DOCTYPE svg PUBLIC "-//W3C//DTD SVG 1.1//EN" "http://www.w3.org/Graphics/SVG/1.1/DTD/svg11.dtd">
<svg version="1.1" id="Layer_1" xmlns="http://www.w3.org/2000/svg" xmlns:xlink="http://www.w3.org/1999/xlink" x="0px" y="0px"
	 viewBox="-278 370 54 54" style="enable-background:new -278 370 54 54;" xml:space="preserve">
<style type="text/css">
	.st0{fill:#FAA31A;}
</style>
<g>
	<path class="st0" d="M-236.6,393.3c-4.6,0-8.3,3.8-8.3,8.3c0,4.6,3.8,8.3,8.3,8.3s8.3-3.8,8.3-8.3
		C-228.3,397.1-232.1,393.3-236.6,393.3z M-235.4,400.7c-1.1,1.5-2.1,3-3,4.6c-0.1,0.1-0.2,0.3-0.3,0.5c-0.3,0.6-0.7,0.9-1.3,0.9
		c-0.3,0-0.5,0-0.6-0.1s-0.3-0.2-0.5-0.4c-0.1-0.2-0.2-0.4-0.3-0.5c-0.1-0.3-0.2-0.6-0.4-1.1v-0.1c-0.2-0.5-0.2-0.8-0.2-1
		c0-0.3,0.2-0.5,0.5-0.7c0.3-0.3,0.6-0.4,0.9-0.4c0.1,0,0.2,0,0.3,0.1s0.1,0.2,0.2,0.4c0.1,0.1,0.1,0.3,0.2,0.5
		c0.2,0.5,0.3,0.7,0.4,0.7s0.5-0.5,1.1-1.6c0.6-1,1.2-1.8,1.6-2.5c0.6-0.9,1.1-1.6,1.5-2c0.4-0.5,0.6-0.7,0.9-1
		c0.3-0.2,0.5-0.4,0.9-0.5c0.4-0.1,0.8-0.2,1.4-0.2l0.1,0.3C-233.2,397.7-234.3,399.2-235.4,400.7z"/>
	<g>
		<path class="st0" d="M-237.9,412.3v5.5c0,0.3-0.2,0.5-0.5,0.5h-29.8c-0.3,0-0.5-0.3-0.5-0.5v-38.7c0-0.3,0.2-0.5,0.5-0.5h3.7
			l1.2,5.1h20.1l1.2-5.1h3.7c0.3,0,0.5,0.3,0.5,0.5v11.5c0.3,0,0.5,0,0.9,0c0.9,0,1.7,0.1,2.6,0.3v-11.7c0-2.2-1.7-3.9-3.8-3.9
			h-10.4c-0.8-1.8-2.7-3-4.7-3c-2,0-3.8,1.2-4.7,3h-10.2c-2.1,0-3.8,1.7-3.8,3.9v38.6c-0.1,2.2,1.6,4,3.8,4h29.8
			c2.1,0,3.8-1.7,3.8-3.9V412c-0.8,0.2-1.6,0.3-2.6,0.3C-237.4,412.3-237.6,412.3-237.9,412.3z M-253.3,374.1c0.9,0,1.8,0.5,2.4,1.1
			h-4.9C-255.1,374.6-254.2,374.1-253.3,374.1z M-244.7,378.6l-0.6,2.6h-15.9l-0.6-2.6H-244.7z"/>
		<path class="st0" d="M-263.6,390.7v2.4h19.6c0.5-0.4,0.9-0.7,1.4-1v-1.4H-263.6z"/>
		<path class="st0" d="M-263.6,403h15.8c-0.1-0.5-0.1-1-0.1-1.5c0-0.3,0-0.6,0-0.9h-15.7V403z"/>
		<path class="st0" d="M-263.6,412.8h21v-2c-0.2-0.1-0.5-0.3-0.6-0.4h-20.3V412.8z"/>
	</g>
</g>
</svg>
