<?xml version="1.0" encoding="utf-8"?>
<!-- Generator: Adobe Illustrator 19.0.1, SVG Export Plug-In . SVG Version: 6.00 Build 0)  -->
<svg version="1.1" id="Layer_1" xmlns="http://www.w3.org/2000/svg" xmlns:xlink="http://www.w3.org/1999/xlink" x="0px" y="0px"
	 viewBox="0 0 54 54" style="enable-background:new 0 0 54 54;" xml:space="preserve">
<style type="text/css">
	.st0{fill:#FAA31A;}
</style>
<g>
	<g>
		<path class="st0" d="M34,3.3L34,3.3c-2.2-2.2-5.1-3.4-8.2-3.4c-6.4,0-11.6,5.1-11.6,11.4c0,3.9,1.8,7.4,4.9,9.7v-4
			c-1.3-1.5-2-3.5-2-5.4c0-0.6,0.1-1.2,0.2-1.7c0.8-4,4.4-6.9,8.5-6.9c1.4,0,2.9,0.4,4.1,1c2.8,1.5,4.5,4.4,4.5,7.6
			c0,1.9-0.6,3.7-1.7,5.2v4.1c0.4-0.3,0.8-0.7,1.2-1c2.2-2.2,3.5-5.1,3.5-8.1C37.4,8.5,36.2,5.5,34,3.3z"/>
	</g>
	<path class="st0" d="M46.8,32.7c-0.3-2.7-3.1-3.6-4.2-4.1c-0.6-0.2-1.7-0.8-2.8-1.3c-3.6-1.8-5.3-2.5-6.5-2.1
		c-0.6,0.2-1.4,0.8-2.1,1.4v-4v-5.3v-0.9c0-1.3-0.5-2.4-1.4-3.2c-1-0.8-2.3-1.2-3.8-1.1c-2.4,0.3-4.5,2.9-4.8,3.2l-0.3,0.4v1.8v5.2
		v15c-1.1-0.9-2.5-1.9-3.3-2.4c-2.4-1.5-5.7-0.3-8.8,0.9L6.6,37l1.6,1.5c2.4,2.3,14.5,13.9,17.8,15c0.8,0.3,2,0.4,3.2,0.4
		c2.2,0,4.6-0.3,5.9-0.5c1.9-0.3,6.5-1.2,8.1-2.6c1.9-1.7,2.1-4.5,2.1-5C45.9,41.3,46.9,33.7,46.8,32.7z M42.5,45.5l0,0.1
		c0,0.6-0.3,2.3-1.2,3.2c-0.5,0.4-2.8,1.3-6.6,1.9c-3.4,0.6-6.5,0.7-7.7,0.3c-1.8-0.6-9.4-7.4-15.1-12.8c1.9-0.6,3.4-0.9,4.2-0.4
		c1.6,1,5.3,4,5.3,4l2.3,1.9V23.8v-4.3v-2.8c0.7-0.8,1.8-1.7,2.5-1.8c0.6-0.1,1.2,0.1,1.6,0.4c0.3,0.3,0.4,0.6,0.4,1.1v3v4.3v10.1
		l2.5-2.8c1.2-1.4,2.7-2.8,3.3-3.1c0.8,0.1,3.1,1.3,4.4,1.9c1.2,0.6,2.4,1.2,3.2,1.5c1.6,0.6,2.3,1.1,2.4,1.7
		C44,33.8,43.2,40,42.5,45.5z"/>
</g>
</svg>
