<?xml version="1.0" encoding="utf-8"?>
<!-- Generator: Adobe Illustrator 19.0.1, SVG Export Plug-In . SVG Version: 6.00 Build 0)  -->
<!DOCTYPE svg PUBLIC "-//W3C//DTD SVG 1.1//EN" "http://www.w3.org/Graphics/SVG/1.1/DTD/svg11.dtd">
<svg version="1.1" id="Layer_1" xmlns="http://www.w3.org/2000/svg" xmlns:xlink="http://www.w3.org/1999/xlink" x="0px" y="0px"
	 viewBox="-278 370 54 54" style="enable-background:new -278 370 54 54;" xml:space="preserve">
<style type="text/css">
	.st0{fill:#FAA31A;}
</style>
<g>
	<path class="st0" d="M-263.7,417.2v-22.6c-1.8,0.7-3.7,0.7-5.5,0v22.6c0,0.2,0,0.2,0,0.3c0,0.9,0.6,1.7,1.4,1.7
		c0.9,0.1,1.8,0.1,2.7,0C-263.8,419.2-263.7,417.9-263.7,417.2z"/>
	<path class="st0" d="M-248.2,397.2v-20.3c0-0.2,0-0.2,0-0.4c-0.1-0.9-0.7-1.7-1.7-1.7c-0.5,0-1.1,0-1.6,0h-0.2
		c-1.3,0-2.1,0.7-2.1,2.1v20.5c0.9-0.3,1.8-0.5,2.7-0.5C-250,396.6-249.1,396.8-248.2,397.2z"/>
	<path class="st0" d="M-232.6,405v-4.5c-1.8,0.7-3.7,0.7-5.5,0v16.7c0,0.2,0,0.3,0,0.5c0.1,0.9,0.8,1.7,1.7,1.7c0.2,0,0.5,0,0.8,0
		c0.1,0,0.2,0,0.3,0s0.4,0,0.6,0c0.6,0,1.1-0.2,1.4-0.5c0.4-0.4,0.6-0.9,0.6-1.6C-232.6,413.3-232.6,409.1-232.6,405z"/>
	<path class="st0" d="M-238,376.6c0,2.7,0,5.3,0,8v2.4c1.8-0.7,3.7-0.7,5.5,0v-2.2c0-2.7,0-5.5,0-8.3c0-0.8-0.6-1.6-1.3-1.7
		c-0.5-0.1-1-0.2-1.5-0.2s-0.9,0-1.3,0.1C-237.7,374.9-238,375.8-238,376.6z"/>
	<path class="st0" d="M-235.3,389.6v-0.7V389.6z"/>
	<path class="st0" d="M-261.6,387.1c0-0.1,0-0.2-0.1-0.3v-0.1c0-0.1-0.1-0.2-0.1-0.3c0-0.1,0-0.1-0.1-0.2c0-0.1-0.1-0.2-0.1-0.3
		v-0.1c-0.1-0.1-0.1-0.2-0.2-0.3v-0.1c-0.1-0.1-0.2-0.2-0.2-0.3l0,0c-0.1-0.1-0.2-0.2-0.2-0.3l0,0c-0.1-0.1-0.2-0.2-0.3-0.3l0,0
		c-0.1-0.1-0.2-0.2-0.3-0.3c0,0,0,0-0.1,0c-0.1-0.1-0.2-0.2-0.3-0.2c0,0-0.1,0-0.1-0.1c-0.1-0.1-0.2-0.2-0.3-0.2c0,0-0.1,0-0.1-0.1
		c-0.1-0.1-0.2-0.1-0.3-0.2c-0.1,0-0.1,0-0.2-0.1c-0.1,0-0.2-0.1-0.3-0.1c-0.1,0-0.1,0-0.2,0c-0.1,0-0.2-0.1-0.3-0.1
		c-0.1,0-0.2,0-0.2,0c-0.1,0-0.2,0-0.3-0.1c-0.1,0-0.2,0-0.2,0c-0.1,0-0.2,0-0.2,0l0,0c-2.7,0-4.8,2.2-4.9,4.9
		c0,2.7,2.2,4.9,4.9,4.9l0,0c0.1,0,0.2,0,0.2,0c0.1,0,0.2,0,0.2,0c0.1,0,0.2,0,0.2,0c0.1,0,0.2,0,0.2,0c0.1,0,0.2,0,0.2-0.1
		c0.1,0,0.2,0,0.2-0.1c0.1,0,0.2-0.1,0.2-0.1c0.1,0,0.2-0.1,0.2-0.1c0.1,0,0.1-0.1,0.2-0.1c0.1-0.1,0.2-0.1,0.2-0.2
		c0.1,0,0.1-0.1,0.2-0.1c0.1-0.1,0.2-0.1,0.2-0.2c0.1,0,0.1-0.1,0.2-0.1c0.1-0.1,0.2-0.1,0.2-0.2l0.1-0.1c0.1-0.1,0.2-0.2,0.2-0.2
		l0.1-0.1c0.1-0.1,0.2-0.2,0.2-0.2c0,0,0,0,0-0.1c0.1-0.1,0.2-0.2,0.2-0.3c0,0,0-0.1,0.1-0.1c0.1-0.1,0.2-0.2,0.2-0.3
		c0,0,0-0.1,0.1-0.1c0.1-0.1,0.1-0.2,0.2-0.3l0,0c0.1-0.2,0.2-0.6,0.2-0.9c0-0.1,0-0.2,0-0.2c0-0.2,0.1-0.5,0.1-0.7
		c0-0.2,0-0.3,0-0.5C-261.6,387.2-261.6,387.2-261.6,387.1z M-264,390.2c-0.7,0.7-1.5,1-2.4,1s-1.7-0.3-2.4-1
		c-0.6-0.7-0.9-1.5-0.9-2.4c0-1.8,1.5-3.3,3.3-3.3l0,0c1.8,0,3.3,1.5,3.3,3.3C-263.1,388.7-263.4,389.5-264,390.2z"/>
	<path class="st0" d="M-235.3,388.9L-235.3,388.9v0.7v0.7c1.8,0,3.3,1.5,3.3,3.3c0,0.9-0.3,1.7-1,2.3c-0.7,0.7-1.5,1-2.4,1
		c-0.9,0-1.7-0.3-2.3-1c-0.7-0.7-1-1.5-1-2.4c0-1.8,1.5-3.3,3.3-3.3v-0.7L-235.3,388.9c-0.1,0-0.2,0-0.2,0s-0.2,0-0.2,0
		s-0.2,0-0.2,0s-0.2,0-0.2,0c-0.1,0-0.2,0-0.2,0.1c-0.1,0-0.2,0-0.2,0.1c-0.1,0-0.2,0.1-0.2,0.1c-0.1,0-0.2,0.1-0.2,0.1
		s-0.1,0.1-0.2,0.1s-0.2,0.1-0.2,0.1c-0.1,0.1-0.1,0.2-0.2,0.2c-0.1,0.1-0.2,0.1-0.2,0.2c-0.1,0-0.1,0.1-0.1,0.1
		c-0.1,0.1-0.2,0.1-0.2,0.2l-0.1,0.1c-0.1,0.1-0.2,0.2-0.2,0.2l-0.1,0.1c-0.1,0.1-0.2,0.2-0.2,0.2c0,0-0.1,0.1-0.1,0.2
		c-0.1,0.1-0.2,0.2-0.2,0.2c0,0-0.1,0.1-0.1,0.2c-0.1,0.1-0.1,0.2-0.2,0.2c0,0.1-0.1,0.1-0.1,0.2c-0.1,0.1-0.1,0.2-0.2,0.2
		c0,0.1-0.1,0.2-0.1,0.2c0,0.1-0.1,0.2-0.1,0.2c0,0.1-0.1,0.2-0.1,0.2c0,0.1,0,0.2-0.1,0.2c0,0.1,0,0.2-0.1,0.2c0,0.1,0,0.2,0,0.2
		c0,0.2,0,0.3,0,0.5c0,1.7,0.8,3.2,2.2,4.1c0.2,0.2,0.5,0.3,0.8,0.4c0.3,0.1,0.6,0.2,0.9,0.2c0.3,0.1,0.7,0.1,1,0.1
		c0.5,0,1-0.1,1.4-0.2c0.7-0.2,1.4-0.7,2-1.2c0.2-0.2,0.4-0.5,0.6-0.7c0.5-0.7,0.8-1.7,0.8-2.7C-230.5,391-232.6,388.9-235.3,388.9z
		"/>
	<path class="st0" d="M-246.1,403C-246.1,402.9-246.1,402.9-246.1,403c-0.1-0.2-0.1-0.3-0.1-0.5l0,0c-0.1-0.2-0.1-0.3-0.2-0.4l0,0
		c-0.2-0.6-0.6-1.1-1-1.5l0,0c-0.4-0.4-0.9-0.7-1.5-1h-0.1c-0.2-0.1-0.2-0.1-0.4-0.2h-0.1c-0.2,0-0.2-0.1-0.4-0.1h-0.1
		c-0.1,0-0.2-0.1-0.3-0.1s-0.2,0-0.2,0s-0.2,0-0.2,0l0,0c-0.5,0-1,0.1-1.5,0.2s-0.9,0.3-1.2,0.6c-0.2,0.2-0.5,0.4-0.7,0.6
		c-0.4,0.4-0.8,1-1.1,1.6s-0.4,1.2-0.4,1.9l0,0c0,0.7,0.2,1.3,0.4,1.9c0,0,0,0,0,0.1c0.2,0.6,0.6,1.1,1,1.5l0,0
		c0.1,0.1,0.2,0.2,0.3,0.2c0,0,0,0,0.1,0c0.1,0.1,0.2,0.2,0.3,0.2c0,0,0.1,0,0.1,0.1c0.1,0.1,0.2,0.2,0.3,0.2c0,0,0.1,0,0.1,0.1
		c0.1,0.1,0.2,0.1,0.3,0.2c0.1,0,0.1,0,0.2,0.1c0.1,0,0.2,0.1,0.2,0.1s0.1,0,0.2,0s0.2,0.1,0.3,0.1s0.2,0,0.2,0s0.2,0,0.2,0
		c0.1,0,0.2,0,0.2,0s0.2,0,0.2,0l0,0c1,0,1.9-0.3,2.7-0.8c1.3-0.8,2.2-2.3,2.2-4l0,0l0,0C-246,403.6-246,403.2-246.1,403z
		 M-250.8,407.3c-1.8,0-3.4-1.5-3.4-3.3c0-0.9,0.3-1.7,1-2.3c0.7-0.7,1.5-1,2.4-1l0,0c0.9,0,1.7,0.3,2.3,1c0.7,0.7,1,1.5,1,2.4
		C-247.5,405.8-249,407.3-250.8,407.3z"/>
	<path class="st0" d="M-248.2,417.4c0-1.7,0-3.5,0-5.2v-1.5c-2.2,0.7-3.2,0.7-5.5,0v1.7c0,1.8,0,3.6,0,5.4c0,0.8,0.6,1.5,1.3,1.6
		c0.9,0.2,1.8,0.2,2.7,0C-248.7,419.2-248.2,418.4-248.2,417.4z"/>
	<path class="st0" d="M-269.1,376.5c0,1.2,0,2.3,0,3.5v1.1c1.8-0.7,3.7-0.7,5.5,0c0-0.3,0-0.7,0-1.1c0-1.2,0-2.5,0-3.7
		c0-0.9-0.7-1.6-1.7-1.7c-0.3,0-0.7,0-1.1,0s-0.7,0-1,0C-268.4,374.7-269.1,375.5-269.1,376.5z"/>
</g>
</svg>
