<?xml version="1.0" encoding="utf-8"?>
<!-- Generator: Adobe Illustrator 19.0.1, SVG Export Plug-In . SVG Version: 6.00 Build 0)  -->
<!DOCTYPE svg PUBLIC "-//W3C//DTD SVG 1.1//EN" "http://www.w3.org/Graphics/SVG/1.1/DTD/svg11.dtd">
<svg version="1.1" id="Layer_1" xmlns="http://www.w3.org/2000/svg" xmlns:xlink="http://www.w3.org/1999/xlink" x="0px" y="0px"
	 viewBox="-278 370 54 54" style="enable-background:new -278 370 54 54;" xml:space="preserve">
<style type="text/css">
	.st0{fill:#FAA31A;}
</style>
<g>
	<polygon class="st0" points="-264.3,389.2 -260,393.6 -257.7,391.6 -262.1,387.1 -261.4,383.5 -269.6,378.5 -270.2,379.1 
		-270.2,379.1 -271.3,380.1 -272.9,381.8 -268,390 	"/>
	<path class="st0" d="M-239.5,403.1c-0.8,0.1-1.5,0.2-2.4,0.2c-1.1,0-2.3-0.2-3.3-0.3l-5.4,6.6l7.4,7.4c2.4,2.4,6.4,2.4,8.8,0
		s2.4-6.4,0-8.8L-239.5,403.1z"/>
	<g>
		<path class="st0" d="M-230.2,382.1l-9.8,9.1l-4.9-5.2l9.2-8.6c0.2-0.2,0.3-0.3,0.5-0.5l0.1-0.1c-1.9-1.1-4.1-1.8-6.4-1.8
			c-3.7,0-7.1,1.6-9.5,4.2c-2.1,2.2-3.4,5.2-3.4,8.6c0,1.5,0.3,3,0.8,4.4l-17.2,14.2c-2.9,2.9-2.9,7.5,0,10.3
			c1.4,1.4,3.3,2.1,5.1,2.1s3.7-0.7,5.1-2.1l14.2-17.3c1.4,0.5,2.9,0.8,4.4,0.8c1.1,0,2.3-0.2,3.3-0.4c5.5-1.3,9.7-6.3,9.7-12.2
			C-228.9,385.6-229.4,383.7-230.2,382.1z M-239.2,397.6L-239.2,397.6c-0.9,0.2-1.9,0.4-2.8,0.4c-1.2,0-2.4-0.2-3.7-0.7l-1.5-0.6
			l-1,1.2l-14,17.1c-1,0.9-2.2,1.5-3.5,1.5c-1.4,0-2.6-0.6-3.6-1.5c-2-2-2-5.1-0.1-7.2l17.2-14.1l1.2-1l-0.6-1.5
			c-0.4-1.1-0.7-2.4-0.7-3.7c0-2.6,1-5.1,2.9-7.1l0,0l0,0c2-2.2,4.8-3.5,7.7-3.5c0.8,0,1.7,0.1,2.5,0.3l-7.4,6.9l-1.6,1.5l1.5,1.6
			l4.9,5.2l1.5,1.6l1.6-1.5l7.3-6.8c0.1,0.5,0.1,1,0.1,1.5C-231.1,392.3-234.4,396.5-239.2,397.6L-239.2,397.6z"/>
	</g>
</g>
</svg>
