<?xml version="1.0" encoding="utf-8"?>
<!-- Generator: Adobe Illustrator 19.0.1, SVG Export Plug-In . SVG Version: 6.00 Build 0)  -->
<svg version="1.1" id="Layer_1" xmlns="http://www.w3.org/2000/svg" xmlns:xlink="http://www.w3.org/1999/xlink" x="0px" y="0px"
	 viewBox="0 0 54 54" style="enable-background:new 0 0 54 54;" xml:space="preserve">
<style type="text/css">
	.st0{fill:#FAA31A;}
</style>
<g>
	<path class="st0" d="M47.8,25.9c1.4,1.2,2.3,2.9,2.3,4.8c0,2.7-1.9,5.1-4.6,6l-0.1,0c-4.2,1.7-11.1,2.8-18.4,2.8
		C16,39.5,8,37.3,5.8,35.1L5.7,35c-1.3-1.2-2.1-2.7-2.1-4.3c0-3.2,3-5.9,6.8-6.1l1.9-0.1l-0.1-1.8c0-0.1,0-0.2,0-0.3
		c0-2.4,2.3-4.4,5.1-4.4c1,0,2,0.3,2.9,0.8l1.7,1l0.9-1.7c1.6-3.3,5.5-5.4,9.8-5.4c5.8,0,10.5,3.8,10.6,8.6c0-0.1,0.1-0.1,0.1-0.2
		c1.1-1.7,2-3,2.7-3.8c-2-4.8-7.2-8.2-13.3-8.2c-5,0-9.6,2.3-12.1,5.9c-1-0.3-2-0.5-3.1-0.5c-4.3,0-7.9,3-8.6,6.8
		C3.7,22.2,0,26.1,0,30.7c0,2.7,1.2,5.2,3.3,7c3.4,3.3,12.6,5.4,23.6,5.4c7.8,0,15.2-1.1,19.8-3c4.2-1.4,7-5.2,7-9.4
		c0-3-1.5-5.8-3.8-7.7c-0.5,0.6-0.9,1.2-1.4,1.8C48.3,25.2,48,25.5,47.8,25.9z"/>
	<path class="st0" d="M50.9,15.3c-0.7,0.2-1.3,0.5-1.8,0.9c-0.5,0.4-1.1,1.1-1.8,1.9c-0.6,0.8-1.6,2.2-2.8,4c-0.9,1.3-2,3-3.2,4.9
		c-1.3,2-2,3.1-2.2,3.1c-0.2,0-0.5-0.4-0.8-1.3c-0.1-0.4-0.3-0.7-0.4-1c-0.2-0.4-0.3-0.6-0.4-0.7c-0.1-0.1-0.3-0.2-0.5-0.2
		c-0.6,0-1.2,0.2-1.9,0.7c-0.6,0.4-0.9,0.9-0.9,1.5c0,0.3,0.1,0.9,0.4,2c0,0.1,0,0.2,0.1,0.2c0.3,0.9,0.5,1.6,0.7,2.1
		c0.2,0.5,0.4,0.9,0.6,1.2c0.3,0.3,0.5,0.6,0.9,0.7c0.3,0.1,0.7,0.2,1.2,0.2c1.1,0,2-0.6,2.6-1.8c0.2-0.4,0.4-0.7,0.5-0.9
		c1.8-3,3.7-6,5.8-8.9c2.1-2.9,4.4-5.7,6.8-8.4l-0.2-0.5C52.6,14.9,51.6,15,50.9,15.3z"/>
</g>
</svg>
