<?xml version="1.0" encoding="utf-8"?>
<!-- Generator: Adobe Illustrator 19.0.1, SVG Export Plug-In . SVG Version: 6.00 Build 0)  -->
<!DOCTYPE svg PUBLIC "-//W3C//DTD SVG 1.1//EN" "http://www.w3.org/Graphics/SVG/1.1/DTD/svg11.dtd">
<svg version="1.1" id="Layer_1" xmlns="http://www.w3.org/2000/svg" xmlns:xlink="http://www.w3.org/1999/xlink" x="0px" y="0px"
	 viewBox="-278 370 54 54" style="enable-background:new -278 370 54 54;" xml:space="preserve">
<style type="text/css">
	.st0{fill:#F9A31A;}
</style>
<g>
	<g>
		<path class="st0" d="M-227.3,391.4h-11.5c-1.2,0-2.2,1.2-2.2,2.8v16.6c0,1.6,1,2.8,2.2,2.8h11.5c1.2,0,2.2-1.2,2.2-2.8v-16.6
			C-225.2,392.6-226.1,391.4-227.3,391.4z M-233.1,412.5c-0.6,0-1.3-0.5-1.3-1.3c0-0.6,0.5-1.3,1.3-1.3c0.6,0,1.3,0.5,1.3,1.3
			C-231.9,411.9-232.4,412.5-233.1,412.5z M-226.9,408.6h-12.4v-14.4c0-0.6,0.3-1,0.4-1h11.5c0.1,0,0.4,0.3,0.4,1L-226.9,408.6
			L-226.9,408.6z"/>
	</g>
	<g>
		<g>
			<path class="st0" d="M-259.9,382.5L-259.9,382.5c0-0.2,0.1-0.4,0.2-0.6c2-2.3,5-3.6,8-3.6c3.1,0,6,1.3,8.1,3.7
				c0.2,0.2,0.2,0.4,0.2,0.6c0,0.4-0.3,0.9-0.7,1c-0.4,0.1-0.9,0-1.1-0.3c-1.7-1.9-4-3-6.4-3s-4.8,1.1-6.4,3
				c-0.3,0.3-0.7,0.4-1.1,0.3C-259.5,383.2-259.9,382.9-259.9,382.5z"/>
		</g>
		<g>
			<path class="st0" d="M-259.9,388.1L-259.9,388.1c0-0.2,0.1-0.4,0.2-0.6c2-2.3,5-3.6,8-3.6c3.1,0,6,1.3,8.1,3.7
				c0.2,0.2,0.2,0.4,0.2,0.6c0,0.4-0.3,0.9-0.7,1c-0.4,0.1-0.9,0-1.1-0.3c-1.7-1.9-4-3-6.4-3s-4.8,1.1-6.4,3
				c-0.3,0.3-0.7,0.4-1.1,0.3C-259.5,389-259.9,388.6-259.9,388.1z"/>
		</g>
		<g>
			<path class="st0" d="M-259.9,394L-259.9,394c0-0.2,0.1-0.4,0.2-0.6c2-2.3,5-3.6,8-3.6c3.1,0,6,1.3,8.1,3.7
				c0.2,0.2,0.2,0.4,0.2,0.6c0,0.4-0.3,0.9-0.7,1c-0.4,0.1-0.9,0-1.1-0.3c-1.7-1.9-4-3-6.4-3s-4.8,1.1-6.4,3
				c-0.3,0.3-0.7,0.4-1.1,0.3C-259.5,394.8-259.9,394.4-259.9,394z"/>
		</g>
	</g>
	<g>
		<circle class="st0" cx="-267" cy="396.8" r="5.1"/>
		<path class="st0" d="M-271.5,403.1l4.7,5.1l4.8-5.1c0,0,5.9-0.6,4.7,10.4h-18.7C-276.2,413.3-278.3,403.5-271.5,403.1z"/>
	</g>
</g>
</svg>
