<?xml version="1.0" encoding="utf-8"?>
<!-- Generator: Adobe Illustrator 19.0.1, SVG Export Plug-In . SVG Version: 6.00 Build 0)  -->
<!DOCTYPE svg PUBLIC "-//W3C//DTD SVG 1.1//EN" "http://www.w3.org/Graphics/SVG/1.1/DTD/svg11.dtd">
<svg version="1.1" id="Layer_1" xmlns="http://www.w3.org/2000/svg" xmlns:xlink="http://www.w3.org/1999/xlink" x="0px" y="0px"
	 viewBox="-278 370 54 54" style="enable-background:new -278 370 54 54;" xml:space="preserve">
<style type="text/css">
	.st0{fill:#F9A31A;}
</style>
<g>
	<path class="st0" d="M-245.7,392.9l-0.4-0.3c-1.5-1.6-3.3-3.3-4.9-5c-0.7-0.7-1.6-1.6-2.6-2.4c-1.2-1.1-2.8-1-3.8,0.2
		c-3,3.1-6,6.2-9.1,9.3c-0.2,0.2-0.4,0.4-0.6,0.6l-3.8-3.3c-0.4-0.3-0.9-0.4-1.3-0.2c-0.5,0.2-0.7,0.7-0.7,1.1v19.5
		c0,0.7,0.6,1.2,1.2,1.2h19.9c0.5,0,0.9-0.2,1.1-0.7c0.2-0.4,0.2-1-0.2-1.3l-3.5-4.5l0.7-0.7c1.3-1.3,2.5-2.5,3.7-3.8
		c0.5-0.5,1-1,1.4-1.4c1.1-1,2.1-2,3.1-3.2C-243.8,396.3-243.9,394.8-245.7,392.9z M-247.4,396.5c-0.9,1.1-2,2-2.9,3.1
		c-0.5,0.5-1,1-1.5,1.5c-1.2,1.2-2.4,2.5-3.7,3.8l-1.4,1.4c-0.4,0.5-0.5,1.1-0.1,1.6l2.6,3.3h-16v-15.6l2.6,2.2
		c0.5,0.4,1.2,0.4,1.6-0.1c0.2-0.2,0.3-0.3,0.5-0.4c0.3-0.3,0.7-0.7,1.1-1c3-3.1,6.1-6.2,9.1-9.3c0.2-0.2,0.2-0.2,0.2-0.2
		s0.1,0,0.2,0.2c0.9,0.7,1.7,1.5,2.4,2.2c1.6,1.6,3.3,3.3,4.8,5l0.4,0.4C-246.6,395.6-246.6,395.6-247.4,396.5z"/>
</g>
<path class="st0" d="M-249.9,378.8l5.9,5.6l-2.5,2.8c0,0,3.3,3.6,5,5.2c1.4,1.4,1.7,3.3,0.7,4.8c-0.3,0.5-0.8,1-1.2,1.5
	c-2.3,2.3-4.6,4.6-6.9,7c0.9,1.1,1.8,2,2.7,3c4.4-4.3,13.3-12.9,13.3-12.9l4.2,3.6v-20.6H-249.9z"/>
</svg>
