<?xml version="1.0" encoding="utf-8"?>
<!-- Generator: Adobe Illustrator 19.0.1, SVG Export Plug-In . SVG Version: 6.00 Build 0)  -->
<!DOCTYPE svg PUBLIC "-//W3C//DTD SVG 1.1//EN" "http://www.w3.org/Graphics/SVG/1.1/DTD/svg11.dtd">
<svg version="1.1" id="Layer_1" xmlns="http://www.w3.org/2000/svg" xmlns:xlink="http://www.w3.org/1999/xlink" x="0px" y="0px"
	 viewBox="-278 370 54 54" style="enable-background:new -278 370 54 54;" xml:space="preserve">
<style type="text/css">
	.st0{fill:#FAA31A;}
</style>
<g>
	<path class="st0" d="M-255.5,391.4h-2.4l-1.2,1.6l-1.2-1.6h-2.4c-1.4,0-2.5,1.1-2.5,2.5v10c0,1,0.7,2,1.6,2.3l1,8.1
		c0.1,1.4,1.1,2.4,2.5,2.4h1.8c1.4,0,2.5-1,2.5-2.4l1-8.1c1-0.3,1.8-1.3,1.8-2.4v-10C-253,392.5-254.2,391.4-255.5,391.4z
		 M-255.8,394.1v9.4h-1.5l-1.3,10.4h-1.4l-1.3-10.4h-1.4v-9.4h0.8l2.6,3.7l2.6-3.7H-255.8z"/>
	<path class="st0" d="M-259.2,391c2.1,0,3.8-2,3.8-4.5c0-2.4-1.7-4.5-3.8-4.5s-3.8,2-3.8,4.5C-263,388.9-261.3,391-259.2,391z
		 M-260.2,386.5c0-0.9,0.5-1.7,1-1.7s1,0.8,1,1.7c0,0.9-0.5,1.7-1,1.7S-260.2,387.4-260.2,386.5z"/>
	<path class="st0" d="M-234.7,378.4h-10.8c0-0.2,0.1-0.4,0.1-0.6V377c0-1.8-1.5-3.4-3.4-3.4h-3.7c-1.8,0-3.4,1.5-3.4,3.4v0.8
		c0,0.2,0,0.4,0.1,0.6h-10.8c-1.9,0-3.4,1.5-3.4,3.4v35.3c0,1.8,1.5,3.3,3.4,3.3h31.9c1.8,0,3.4-1.5,3.4-3.4v-35.2
		C-231.3,379.9-232.8,378.4-234.7,378.4z M-253.1,377.8V377c0-0.3,0.3-0.6,0.6-0.6h3.7c0.3,0,0.6,0.3,0.6,0.6v0.8
		c0,0.3-0.3,0.6-0.6,0.6h-3.7C-252.9,378.4-253.1,378-253.1,377.8z M-234.1,381.8v35.3c0,0.3-0.3,0.6-0.6,0.6h-31.9
		c-0.3,0-0.6-0.3-0.6-0.6v-35.3c0-0.3,0.3-0.6,0.6-0.6h31.9C-234.3,381.2-234.1,381.4-234.1,381.8z"/>
	<polygon class="st0" points="-244,389.5 -247.6,385.9 -249.5,387.9 -244,393.4 -235.3,384.7 -237.3,382.7 	"/>
	<polygon class="st0" points="-244,400.4 -247.6,396.8 -249.5,398.8 -244,404.4 -235.3,395.6 -237.3,393.6 	"/>
	<polygon class="st0" points="-244,411.4 -247.6,407.8 -249.5,409.8 -244,415.3 -235.3,406.6 -237.3,404.6 	"/>
</g>
</svg>
