<?xml version="1.0" encoding="utf-8"?>
<!-- Generator: Adobe Illustrator 19.0.1, SVG Export Plug-In . SVG Version: 6.00 Build 0)  -->
<!DOCTYPE svg PUBLIC "-//W3C//DTD SVG 1.1//EN" "http://www.w3.org/Graphics/SVG/1.1/DTD/svg11.dtd">
<svg version="1.1" id="Layer_1" xmlns="http://www.w3.org/2000/svg" xmlns:xlink="http://www.w3.org/1999/xlink" x="0px" y="0px"
	 viewBox="-278 370 54 54" style="enable-background:new -278 370 54 54;" xml:space="preserve">
<style type="text/css">
	.st0{fill:#F9A31A;}
</style>
<g>
	<path class="st0" d="M-234.4,415H-268c-1.8,0-3.3-1.5-3.3-3.3c0-0.7,0.3-1.4,0.6-1.9l5.1-8.9c1.1-0.6,11.8-6.7,19.4-4.3
		c2,0.6,3.1,1.9,3.7,3.1c-1-0.4-2.1-0.6-3.1-0.6c-2.2,0-5.1,1.3-6.1,3.9c-0.5,1.4-0.9,3.8,0.2,5.8c0.7,1.5,2.1,2.6,3.9,3.2
		c4.6,1.4,13.2,1.6,16.4,1.7C-231.9,414.4-233,415.1-234.4,415z"/>
	<path class="st0" d="M-228.3,408.3l-16.7-28.9c-2.2-4.6-9-5.3-11.8-0.4l-16.7,28.9c-0.6,1.1-1.1,2.4-1.1,3.8c0,3.7,3,6.7,6.7,6.7
		h33.5C-229.4,418.7-225.6,413-228.3,408.3z M-234.4,415H-268c-1.8,0-3.3-1.5-3.3-3.3c0-0.7,0.3-1.4,0.6-1.9l16.7-29.1
		c1.4-2.5,4.9-2.1,6,0.4l16.7,29C-229.8,412.4-231.8,415.1-234.4,415z"/>
</g>
</svg>
