<?xml version="1.0" encoding="utf-8"?>
<!-- Generator: Adobe Illustrator 19.0.1, SVG Export Plug-In . SVG Version: 6.00 Build 0)  -->
<!DOCTYPE svg PUBLIC "-//W3C//DTD SVG 1.1//EN" "http://www.w3.org/Graphics/SVG/1.1/DTD/svg11.dtd">
<svg version="1.1" id="Layer_1" xmlns="http://www.w3.org/2000/svg" xmlns:xlink="http://www.w3.org/1999/xlink" x="0px" y="0px"
	 viewBox="-278 370 54 54" style="enable-background:new -278 370 54 54;" xml:space="preserve">
<style type="text/css">
	.st0{fill:#FAA31A;}
</style>
<g>
	<path class="st0" d="M-241.4,375.9h-19.3c-6.3,0-11.4,5.1-11.4,11.4v18.5c0,6.3,5.1,11.4,11.4,11.4h19.3c6.2,0,11.4-5.1,11.4-11.4
		v-18.5C-230,380.9-235.1,375.9-241.4,375.9z M-260.4,390.8c0.7,0.7,1.7,1.1,2.7,1.1l0,0c1.2,0,2-0.5,2.6-1c0.5-0.4,0.9-0.6,1.6-0.6
		s1.2,0.2,1.4,0.5c0.1,0.2,0.1,0.2,0.1,0.2v4.5h-5.2l0,0c-0.5,0-1.2,0.2-1.6,0.7c-0.6,0.7-1,1.6-1,2.8c0,1.2,0.5,2,1,2.6
		c0.4,0.5,0.6,0.9,0.6,1.5c0,0.5-0.2,0.9-0.5,1.3c-0.4,0.4-0.9,0.5-1.3,0.5s-0.9-0.2-1.3-0.5c-0.4-0.4-0.5-0.9-0.5-1.3
		c0-0.6,0.2-0.9,0.6-1.5c0.4-0.6,1-1.4,1-2.6c0-1.1-0.4-2.1-1-2.8c-0.5-0.5-1-0.7-1.6-0.7l0,0h-6.2v-8.6c0-2.3,0.9-4.5,2.5-6.1
		c1.6-1.6,3.8-2.6,6.1-2.6h8.6v6.9c0,0,0,0.1-0.2,0.2c-0.2,0.2-0.8,0.5-1.3,0.5l0,0c-0.6,0-0.9-0.2-1.6-0.6s-1.4-1-2.6-1l0,0
		c-1,0-2,0.4-2.7,1.1c-0.7,0.7-1.1,1.7-1.1,2.7C-261.5,389.2-261.1,390.1-260.4,390.8z M-263,397.4c0,0,0.1,0,0.2,0.2
		c0.2,0.2,0.5,0.8,0.5,1.4s-0.2,0.9-0.6,1.6s-1,1.4-1,2.6c0,1,0.4,2,1.1,2.7c0.7,0.7,1.7,1.1,2.7,1.1c1,0,2-0.4,2.7-1.1
		c0.7-0.7,1.1-1.7,1.1-2.7c0-1.2-0.5-2-1-2.6c-0.4-0.5-0.6-0.9-0.6-1.6s0.2-1.2,0.5-1.4c0.1-0.1,0.2-0.1,0.2-0.1h5.2v5.2
		c0,0.5,0.2,1.2,0.7,1.6c0.7,0.6,1.6,1,2.8,1l0,0c1.2,0,2-0.5,2.6-1c0.5-0.4,0.9-0.6,1.5-0.6c0.5,0,0.9,0.2,1.3,0.5
		c0.4,0.4,0.5,0.9,0.5,1.3c0,0.5-0.2,0.9-0.5,1.3c-0.4,0.4-0.9,0.5-1.3,0.5c-0.6,0-0.9-0.2-1.5-0.6c-0.6-0.4-1.4-1-2.6-1l0,0
		c-1.1,0-2.1,0.4-2.8,1c-0.5,0.5-0.7,1-0.7,1.6v6.2h-8.6c-2.3,0-4.5-0.9-6.1-2.6s-2.6-3.8-2.6-6.1v-8.6L-263,397.4z M-250.1,408.4
		c0,0,0-0.1,0.2-0.2c0.2-0.2,0.8-0.5,1.3-0.5l0,0c0.6,0,0.9,0.2,1.6,0.6s1.4,1,2.6,1l0,0c1,0,2-0.4,2.7-1.1c0.7-0.7,1.1-1.7,1.1-2.7
		s-0.4-2-1.1-2.7s-1.7-1.1-2.7-1.1l0,0c-1.2,0-2,0.5-2.6,1c-0.5,0.4-0.9,0.6-1.6,0.6s-1.2-0.2-1.4-0.5c-0.1-0.1-0.1-0.2-0.1-0.2
		v-5.2h4.5l0,0c0.5,0,1.2-0.2,1.6-0.7c0.6-0.7,1-1.6,1-2.8c0-1.2-0.5-2-1-2.6c-0.4-0.5-0.6-0.9-0.6-1.5c0-0.5,0.2-0.9,0.5-1.3
		c0.7-0.7,1.9-0.7,2.6,0c0.4,0.4,0.5,0.9,0.5,1.3c0,0.6-0.2,0.9-0.6,1.5c-0.4,0.6-1,1.4-1,2.6c0,1.1,0.4,2.1,1,2.8
		c0.5,0.5,1,0.7,1.6,0.7l0,0h6.9v8.6c0,2.3-0.9,4.5-2.6,6.1s-3.8,2.5-6.1,2.5h-8.6v-6.4H-250.1z M-239.9,395.5
		c-0.1,0-0.1-0.1-0.2-0.2c-0.2-0.2-0.5-0.8-0.5-1.4c0-0.6,0.2-0.9,0.6-1.6s1-1.4,0.9-2.6c0-1-0.4-2-1.1-2.7
		c-0.7-0.7-1.7-1.1-2.7-1.1s-2,0.4-2.7,1.1c-0.7,0.7-1.1,1.7-1.1,2.7c0,1.2,0.5,2,1,2.6c0.4,0.5,0.6,0.9,0.6,1.6s-0.2,1.2-0.5,1.4
		c-0.2,0.1-0.2,0.1-0.2,0.1h-4.5V391c0-0.5-0.2-1.2-0.7-1.6c-0.7-0.6-1.6-1-2.8-1l0,0c-1.2,0-2,0.5-2.6,1c-0.5,0.4-0.9,0.6-1.5,0.6
		c-0.5,0-0.9-0.2-1.3-0.5c-0.3-0.4-0.5-0.9-0.5-1.3c0-0.5,0.2-0.9,0.5-1.3c0.4-0.4,0.9-0.5,1.3-0.5c0.6,0,0.9,0.2,1.5,0.6
		c0.6,0.4,1.4,1,2.6,1l0,0c1.1,0,2.1-0.4,2.8-1c0.5-0.5,0.7-1,0.7-1.6v-7.1h8.6c2.3,0,4.5,0.9,6.1,2.6s2.6,3.8,2.6,6.1v8.6
		L-239.9,395.5L-239.9,395.5z"/>
</g>
</svg>
