<?xml version="1.0" encoding="utf-8"?>
<!-- Generator: Adobe Illustrator 19.0.1, SVG Export Plug-In . SVG Version: 6.00 Build 0)  -->
<!DOCTYPE svg PUBLIC "-//W3C//DTD SVG 1.1//EN" "http://www.w3.org/Graphics/SVG/1.1/DTD/svg11.dtd">
<svg version="1.1" id="Layer_1" xmlns="http://www.w3.org/2000/svg" xmlns:xlink="http://www.w3.org/1999/xlink" x="0px" y="0px"
	 viewBox="-278 370 54 54" style="enable-background:new -278 370 54 54;" xml:space="preserve">
<style type="text/css">
	.st0{fill:#FAA31A;}
</style>
<g>
	<g>
		<path class="st0" d="M-243.7,419.1c-0.2,0.6-0.8,0.9-1.3,0.9c-0.2,0-0.3,0-0.5-0.1c-0.4-0.2-0.9-0.3-1.2-0.5c-1-0.4-2-0.9-3.2-0.9
			c-0.5,0-1.9,0.3-3.1,0.6c-1.4,0.3-2.9,0.7-4.2,0.9c-0.8,0.1-1.4-0.4-1.5-1.2c-0.1-0.8,0.4-1.4,1.2-1.5c1.1-0.1,2.6-0.5,3.8-0.8
			c1.8-0.4,2.9-0.7,3.7-0.7c1.7,0,3.1,0.6,4.3,1.1c0.3,0.2,0.8,0.3,1,0.4C-243.8,417.5-243.4,418.4-243.7,419.1z"/>
		<path class="st0" d="M-265.7,403.6c0.3-0.1,0.6-0.1,0.9-0.2c2.8-0.6,6.6-1.4,9.6-3.4c-1-0.3-2-0.9-3-1.5c-2.3,1.2-4.9,1.7-7.2,2.2
			c-0.3,0.1-0.6,0.1-0.9,0.2c-0.8,0.2-1.3,0.9-1.1,1.7c0.2,0.7,0.7,1.1,1.4,1.1C-265.8,403.6-265.8,403.6-265.7,403.6z"/>
		<path class="st0" d="M-266.1,394c1.7,0.2,3-0.1,4-0.7c-0.3-0.9-0.6-2-0.7-3c-0.9,1-2,1-3.1,0.9c-0.8-0.1-1.4,0.5-1.5,1.3
			C-267.5,393.3-266.9,393.9-266.1,394z"/>
		<path class="st0" d="M-259.5,397.3c-0.7-0.7-1.3-1.4-1.7-2.2c-1.4,0.7-3.1,1.1-5.2,1.1c-0.8,0-1.4,0.7-1.4,1.4s0.6,1.4,1.4,1.4
			C-263.7,398.9-261.4,398.4-259.5,397.3z"/>
		<path class="st0" d="M-261.6,407.3c4.2-1,9.8-2.4,13.4-7.2c-1,0.3-2,0.4-3.2,0.4c-0.3,0-0.8,0-1.1-0.1c-2.8,2.3-6.5,3.2-9.8,4
			c-1.2,0.3-2.3,0.6-3.3,0.9c-0.8,0.3-1.1,1-0.9,1.8c0.2,0.6,0.8,0.9,1.4,0.9c0.2,0,0.3,0,0.4-0.1
			C-263.8,407.8-262.8,407.6-261.6,407.3z"/>
		<path class="st0" d="M-235.9,400.8c-2.5-0.8-4.8-1.8-4.7-5.7c0-0.9,0.1-1.4,0.1-2c0-0.3,0.1-0.5,0.1-0.8c-0.5,1.9-1.5,3.6-2.8,4.9
			c0.9,4.7,4.8,5.9,6.6,6.4c0.2,0,0.3,0.1,0.4,0.1c0.6,0,1.2-0.4,1.4-1C-234.8,401.9-235.2,401.1-235.9,400.8z"/>
		<path class="st0" d="M-240.9,413.9c-1-0.3-2.2-0.9-3.4-1.4c-1.8-0.9-3.4-1.6-4.9-1.6c-1.1,0-2.9,0.5-5.8,1.4
			c-2.1,0.6-4.5,1.3-6.2,1.6c-0.8,0.2-1.3,0.9-1.1,1.6s0.9,1.3,1.6,1.1c1.9-0.3,4.3-1,6.6-1.7c2-0.6,4.3-1.3,5-1.3
			c0.9,0,2.3,0.7,3.7,1.4c1.3,0.6,2.6,1.2,3.8,1.5c0.1,0,0.3,0.1,0.3,0.1c0.6,0,1.2-0.4,1.4-1C-239.7,414.8-240.1,414-240.9,413.9z"
			/>
		<path class="st0" d="M-235.4,396.2c-0.1-0.1-0.7-0.5-0.5-1.8c0.2-1.8,0.3-4.8,0.3-4.9v-0.1c-0.1-8.5-7-15.4-15.6-15.4
			c-6.3,0-12.1,3.9-14.4,9.9c-0.3,0.7-0.5,1.5-0.7,2.2c-0.1,0.4-0.3,0.9-0.3,1c-0.3,0.7,0.1,1.5,0.8,1.8c0.7,0.3,1.5-0.1,1.8-0.8
			c0.2-0.3,0.3-0.8,0.4-1.4c0.2-0.7,0.3-1.4,0.5-1.9c1.9-4.9,6.6-8.1,11.8-8.1c7,0,12.6,5.6,12.6,12.6c0,0.3-0.1,3.1-0.3,4.7
			c-0.3,3.1,1.6,4.6,2.6,4.8c0.1,0,0.2,0,0.3,0c0.7,0,1.2-0.4,1.4-1.1C-234.3,397.1-234.8,396.4-235.4,396.2z"/>
		<path class="st0" d="M-236.9,405.4c-1.4-0.3-2.6-0.8-4.2-1.4c-1.1-0.5-2.4-1.4-3.3-2.5c-0.5-0.6-1.4-0.7-2-0.2
			c-0.6,0.5-0.7,1.4-0.2,2c1.2,1.4,2.8,2.6,4.3,3.2c1.4,0.6,3,1.2,4.7,1.6c0.1,0,0.2,0,0.3,0c0.7,0,1.2-0.4,1.4-1.1
			S-236.1,405.6-236.9,405.4z"/>
		<path class="st0" d="M-238.2,409.9c-2.6-0.6-4.4-1.5-6-2.4c-1.5-0.9-2.9-1.5-4.5-1.5c-1.3,0-2.7,0.5-5,1.2
			c-2.4,0.8-5.6,1.8-10.1,2.7c-0.8,0.2-1.3,0.9-1.1,1.6c0.2,0.8,0.9,1.3,1.6,1.1c4.7-0.9,8-2,10.5-2.8c2-0.6,3.3-1,4.2-1
			c0.9,0,2,0.5,3.2,1.2c1.7,0.9,3.7,2,6.7,2.6c0.1,0,0.2,0,0.3,0c0.7,0,1.2-0.4,1.4-1.1C-237.1,410.8-237.5,410-238.2,409.9z"/>
	</g>
	<path class="st0" d="M-244,381.4c-1.6,1.8-3.1,3.7-4.5,5.5c-1.4,1.9-2.6,3.8-3.8,5.9c-0.1,0.2-0.2,0.3-0.3,0.6
		c-0.4,0.8-0.9,1.2-1.7,1.2c-0.3,0-0.6-0.1-0.8-0.2c-0.2-0.1-0.4-0.3-0.6-0.5c-0.2-0.2-0.3-0.4-0.4-0.8c-0.1-0.3-0.3-0.8-0.4-1.4
		c0,0,0-0.1,0-0.2c-0.2-0.7-0.3-1.1-0.3-1.3c0-0.3,0.2-0.7,0.6-0.9c0.4-0.3,0.9-0.4,1.2-0.4c0.2,0,0.3,0,0.3,0.1
		c0.1,0.1,0.2,0.3,0.3,0.5c0.1,0.2,0.2,0.3,0.3,0.6c0.2,0.6,0.4,0.9,0.5,0.9s0.6-0.7,1.4-2c0.9-1.3,1.5-2.4,2.1-3.2
		c0.9-1.2,1.4-2.1,1.9-2.6c0.4-0.5,0.9-0.9,1.2-1.3c0.3-0.1,0.7-0.3,1.1-0.4c0.5-0.2,1.1-0.3,1.8-0.3L-244,381.4z"/>
</g>
</svg>

