<?xml version="1.0" encoding="utf-8"?>
<!-- Generator: Adobe Illustrator 19.0.1, SVG Export Plug-In . SVG Version: 6.00 Build 0)  -->
<!DOCTYPE svg PUBLIC "-//W3C//DTD SVG 1.1//EN" "http://www.w3.org/Graphics/SVG/1.1/DTD/svg11.dtd">
<svg version="1.1" id="Layer_1" xmlns="http://www.w3.org/2000/svg" xmlns:xlink="http://www.w3.org/1999/xlink" x="0px" y="0px"
	 viewBox="-278 370 54 54" style="enable-background:new -278 370 54 54;" xml:space="preserve">
<style type="text/css">
	.st0{fill:none;}
	.st1{fill:#F9A31A;}
</style>
<g>
	<path class="st0" d="M-269.1,405h32.4l-5.6-5.6l-0.7,0.3c-0.6,0.2-1.3,0.5-2,0.6c-0.7,0.1-1.5,0.1-2.2,0c-1.7-0.2-3.2-1-4.4-2.3
		c-0.3-0.4-0.6-0.8-1-1.2l-0.1-0.2c-0.3-0.6-0.6-1.2-0.8-1.8v-0.1c-0.2-0.7-0.2-1.4-0.2-2.1c0-0.5,0.1-1,0.2-1.5v-0.1
		c0.2-0.6,0.4-1.3,0.7-1.8c0-0.1,0.1-0.2,0.1-0.2c0.4-0.6,0.8-1.2,1.4-1.7c0.9-0.9,2-1.4,3.2-1.8c0.8-0.2,1.5-0.3,2.3-0.3
		c0.6,0,1.3,0.1,1.9,0.3c1.4,0.4,2.5,1.1,3.4,2.1c0.8,0.9,1.4,1.9,1.7,3c0.5,1.4,0.5,2.9,0,4.5c-0.2,0.5-0.3,0.9-0.5,1.3l-0.4,0.7
		l6.8,6.8v-22.3h-36.3V405z"/>
	<circle class="st0" cx="-246" cy="392.7" r="5.6"/>
	<path class="st1" d="M-230.3,377.9h-41.3c-0.5,0-0.8,0.4-0.8,0.9v29.1c0,0.5,0.4,0.9,0.8,0.9h15.1v5.3h-5.9c-0.2,0-0.3,0.1-0.4,0.1
		l-0.7,1.8c0,0.2,0,0.5,0,0.7c0,0,0.1,0,0.2,0h24.7c0.1,0,0.2,0,0.2,0c0-0.2,0-0.6,0-0.8l-0.7-1.7c0,0-0.2-0.1-0.3-0.1h-5.9v-5.3
		h15.1c0.5,0,0.8-0.4,0.8-0.9v-29C-229.5,378.3-229.9,377.9-230.3,377.9z M-232.9,403.7l-6.8-6.8l0.4-0.7c0.2-0.4,0.4-0.8,0.5-1.3
		c0.5-1.4,0.5-3,0-4.5c-0.3-1.1-0.9-2.1-1.7-2.9c-1-1-2.1-1.7-3.4-2.1c-0.6-0.2-1.3-0.3-1.9-0.3c-0.8,0-1.6,0.1-2.3,0.3
		c-1.2,0.3-2.2,1-3.2,1.8c-0.6,0.5-1,1-1.4,1.7c0,0.1-0.1,0.2-0.1,0.2c-0.3,0.6-0.6,1.2-0.7,1.8v0.1c-0.2,0.6-0.2,1-0.2,1.5
		c0,0.7,0.1,1.4,0.2,2.1v0.1c0.2,0.6,0.5,1.3,0.8,1.8l0.1,0.2c0.2,0.4,0.6,0.8,1,1.2c1.2,1.3,2.7,2.1,4.4,2.3c0.7,0.1,1.5,0.1,2.2,0
		c0.7-0.1,1.4-0.3,2-0.6l0.7-0.3l5.6,5.6h-32.4v-23.5h36.3V403.7z M-240.4,392.7c0,3.1-2.5,5.6-5.6,5.6s-5.6-2.5-5.6-5.6
		c0-3.1,2.5-5.6,5.6-5.6S-240.4,389.6-240.4,392.7z"/>
</g>
</svg>



