<?xml version="1.0" encoding="utf-8"?>
<!-- Generator: Adobe Illustrator 19.0.1, SVG Export Plug-In . SVG Version: 6.00 Build 0)  -->
<!DOCTYPE svg PUBLIC "-//W3C//DTD SVG 1.1//EN" "http://www.w3.org/Graphics/SVG/1.1/DTD/svg11.dtd">
<svg version="1.1" id="Layer_1" xmlns="http://www.w3.org/2000/svg" xmlns:xlink="http://www.w3.org/1999/xlink" x="0px" y="0px"
	 viewBox="-278 370 54 54" style="enable-background:new -278 370 54 54;" xml:space="preserve">
<style type="text/css">
	.st0{fill:#FAA31A;}
</style>
<path class="st0" d="M-270.6,396.8c0-1.1,0.1-2.1,0.3-3.1l-2.1-0.7c-0.6-0.2-0.8-0.8-0.7-1.4l1.1-3.6c0.2-0.6,0.8-0.8,1.4-0.7
	l2.1,0.7c0.9-1.9,2.3-3.7,3.8-5.3l-1.3-1.8c-0.3-0.5-0.3-1.2,0.3-1.5l3-2.2c0.5-0.3,1.2-0.3,1.5,0.3l1.1,1.8c1.9-1,4.4-1.7,5.9-1.9
	v-2.2c0-0.6,0.8-1.2,1.4-1.2h3.7c0.6,0,1.3,0.6,1.3,1.2v2.2c2.4,0.3,4.2,1,6,1.9l1.1-1.6c0.3-0.5,1-0.6,1.5-0.3l3,2.2
	c0.5,0.3,0.6,1,0.3,1.4l-1.2,1.6c1.5,1.5,2.9,3.3,3.8,5.3l1.9-0.6c0.6-0.2,1.2,0.1,1.4,0.7l1.1,3.6c0.2,0.6-0.1,1.2-0.7,1.4
	l-1.9,0.6c0.2,1,0.3,2.1,0.3,3.2c0,1.1-0.1,2.2-0.3,3.2l2,0.7c0.6,0.2,0.8,0.8,0.7,1.4l-1.1,3.6c-0.2,0.6-0.8,0.8-1.4,0.7l-2-0.7
	c-0.9,1.9-2.2,3.6-3.7,5.2l1.3,1.8c0.3,0.5,0.3,1.2-0.3,1.5l-3,2.2c-0.5,0.3-1.2,0.3-1.5-0.3l-1.2-1.8c-1.9,1-3.6,1.7-6,1.9v2.2
	c0,0.6-0.7,1.4-1.3,1.4h-3.7c-0.6,0-1.4-0.8-1.4-1.4v-2.2c-1.6-0.3-4.2-1-6-2l-1.3,1.9c-0.3,0.5-1,0.6-1.4,0.3l-3-2.2
	c-0.5-0.3-0.6-1-0.3-1.5l1.4-1.9c-1.5-1.5-2.8-3.2-3.7-5.2l-2.3,0.8c-0.6,0.2-1.2-0.1-1.4-0.7l-1.1-3.6c-0.2-0.6,0.1-1.2,0.7-1.4
	l2.1-0.7C-270.5,399-270.6,397.9-270.6,396.8z M-267.2,396.8c0,9,7.3,16.3,16.3,16.3c9,0,16.3-7.3,16.3-16.3c0-9-7.3-16.3-16.3-16.3
	C-259.9,380.6-267.2,387.8-267.2,396.8z"/>
<g>
	<path class="st0" d="M-251,407.5c-5.8,0-10.5-4.7-10.5-10.5s4.7-10.6,10.5-10.6s10.5,4.7,10.5,10.5S-245.1,407.5-251,407.5z
		 M-251,389.2c-4.2,0-7.7,3.5-7.7,7.7c0,4.2,3.5,7.7,7.7,7.7s7.7-3.5,7.7-7.7C-243.3,392.7-246.8,389.2-251,389.2z"/>
</g>
</svg>
