<?xml version="1.0" encoding="utf-8"?>
<!-- Generator: Adobe Illustrator 19.0.1, SVG Export Plug-In . SVG Version: 6.00 Build 0)  -->
<!DOCTYPE svg PUBLIC "-//W3C//DTD SVG 1.1//EN" "http://www.w3.org/Graphics/SVG/1.1/DTD/svg11.dtd">
<svg version="1.1" id="Layer_1" xmlns="http://www.w3.org/2000/svg" xmlns:xlink="http://www.w3.org/1999/xlink" x="0px" y="0px"
	 viewBox="-278 370 54 54" style="enable-background:new -278 370 54 54;" xml:space="preserve">
<style type="text/css">
	.st0{fill:#F9A31A;}
</style>
<g>
	<g>
		<path class="st0" d="M-249.5,395.8c0.5,0.5,0.4,1.3-0.1,1.8l0,0c-0.5,0.4-1.3,0.4-1.8-0.2l-7.1-8.4c-0.5-0.5-0.4-1.3,0.1-1.8l0,0
			c0.5-0.4,1.3-0.4,1.8,0.2L-249.5,395.8z"/>
		<path class="st0" d="M-257.5,401.9c-0.4,0.4-0.4,1.1,0,1.6l0,0c0.4,0.5,1.2,0.6,1.6,0.3l6.9-5.9c0.4-0.4,0.4-1.1,0-1.6l0,0
			c-0.4-0.5-1.2-0.6-1.6-0.3L-257.5,401.9z"/>
	</g>
	<rect x="-266.4" y="396.8" class="st0" width="3.1" height="1.3"/>
	<rect x="-239.3" y="396.8" class="st0" width="3.1" height="1.3"/>
	<g>
		<rect x="-251.7" y="381.6" class="st0" width="1.3" height="3.1"/>
		<rect x="-251.8" y="409.1" class="st0" width="1.3" height="3.1"/>
	</g>
	<polygon class="st0" points="-243.6,385.8 -235.5,387.4 -237.6,379 	"/>
	<path class="st0" d="M-235.8,391.5c0.6,1.7,0.9,3.6,0.9,5.5c0,9-7.3,16.4-16.4,16.4c-9,0-16.4-7.3-16.4-16.4
		c0-9,7.3-16.3,16.4-16.3c4.2,0,8.1,1.6,11,4.3l2.6-1.8c-3.5-3.5-8.3-5.6-13.6-5.6c-10.7,0-19.5,8.7-19.5,19.5
		c0,10.7,8.7,19.5,19.5,19.5c10.7,0,19.5-8.7,19.5-19.5c0-2.4-0.4-4.7-1.3-6.9L-235.8,391.5z"/>
</g>
</svg>
