<?xml version="1.0" encoding="utf-8"?>
<!-- Generator: Adobe Illustrator 19.0.1, SVG Export Plug-In . SVG Version: 6.00 Build 0)  -->
<!DOCTYPE svg PUBLIC "-//W3C//DTD SVG 1.1//EN" "http://www.w3.org/Graphics/SVG/1.1/DTD/svg11.dtd">
<svg version="1.1" id="Layer_1" xmlns="http://www.w3.org/2000/svg" xmlns:xlink="http://www.w3.org/1999/xlink" x="0px" y="0px"
	 viewBox="-278 370 54 54" style="enable-background:new -278 370 54 54;" xml:space="preserve">
<style type="text/css">
	.st0{fill:none;stroke:#F9A31A;stroke-width:1.9856;stroke-linecap:round;stroke-miterlimit:10;}
	.st1{fill:#F9A31A;}
	.st2{fill:none;stroke:#F9A31A;stroke-width:2.9794;stroke-linecap:round;stroke-miterlimit:10;}
	.st3{fill:none;stroke:#F9A31A;stroke-width:3.0704;stroke-linecap:round;stroke-miterlimit:10;}
</style>
<line class="st0" x1="-238.4" y1="381.3" x2="-244.6" y2="379.2"/>
<line class="st0" x1="-226.3" y1="385.5" x2="-232.5" y2="383.4"/>
<line class="st0" x1="-233.1" y1="380.3" x2="-228.1" y2="376"/>
<line class="st0" x1="-242.8" y1="388.7" x2="-237.8" y2="384.4"/>
<line class="st0" x1="-234.9" y1="385.4" x2="-233.6" y2="391.9"/>
<line class="st0" x1="-237.3" y1="372.9" x2="-236" y2="379.3"/>
<path class="st1" d="M-238.3,390.9c0-0.4-0.1-0.8-0.4-1.1l-5.1-5.3c-0.6-0.6-1.5-0.6-2.1-0.1l-1.3,1.3c-0.6-0.3-1.2-0.6-1.9-0.9
	c-1.7-0.7-3.5-1-5.4-1c-6.2,0-11.9,3.9-14.1,9.8c-1.4,3.8-1.3,7.9,0.3,11.6c0.4,1,1,1.9,1.6,2.7l2.5-1.6c-0.6-0.7-1-1.5-1.4-2.4
	c-1.3-3-1.4-6.3-0.3-9.3c1.8-4.7,6.4-7.8,11.4-7.8c1.5,0,2.9,0.3,4.3,0.8c0.8,0.3,1.6,0.7,2.3,1.2c0.6,0.4,1.3,0.3,1.8-0.2l1.1-1
	l3,3.2l-1.3,1.2c-0.5,0.4-0.6,1.1-0.3,1.7c1.5,3,1.6,6.4,0.4,9.6c-0.6,1.6-1.6,3-2.8,4.2l1.9,1l0.9,0.4c1.2-1.3,2.1-2.9,2.8-4.6
	c1.4-3.6,1.3-7.4-0.1-10.9l1.6-1.5C-238.5,391.7-238.3,391.3-238.3,390.9z"/>
<path class="st2" d="M-271.7,412.8c1.7-2.5,8.7-7.2,14.1-7.4c4.9-0.1,8.2,0.6,13.7,5.1c0.5,0.4,1.4-0.1,2.1-0.1c2.6,0,5,0.4,7,1.2"
	/>
<path class="st3" d="M-275.8,405.2v8.5c0,2.2,1.3,4.3,3.4,4.3h38.5c2.2,0,4.1-2.2,4.1-4.3v-8.5"/>
</svg>
