<?xml version="1.0" encoding="utf-8"?>
<!-- Generator: Adobe Illustrator 19.0.1, SVG Export Plug-In . SVG Version: 6.00 Build 0)  -->
<!DOCTYPE svg PUBLIC "-//W3C//DTD SVG 1.1//EN" "http://www.w3.org/Graphics/SVG/1.1/DTD/svg11.dtd">
<svg version="1.1" id="Layer_1" xmlns="http://www.w3.org/2000/svg" xmlns:xlink="http://www.w3.org/1999/xlink" x="0px" y="0px"
	 viewBox="-278 370 54 54" style="enable-background:new -278 370 54 54;" xml:space="preserve">
<style type="text/css">
	.st0{fill:#FAA31A;}
</style>
<g>
	<path class="st0" d="M-228,394.5c-0.8-3.8-2.5-7.2-5.2-10.2c-0.1-0.1-0.3-0.2-0.4-0.2s-0.4,0.1-0.4,0.2l-2.4,3
		c-0.2,0.2-0.2,0.4,0,0.7l0.5,0.9c1.8,2.7,2.6,5.7,2.8,8.7c0.4,5.7-1.6,10.6-5.6,14.7c-0.8,0.8-1.2,1.8-1.2,2.7
		c0,0.9,0.4,1.7,1.1,2.3c0.6,0.6,1.4,0.9,2.2,0.9h0.1c1,0,1.9-0.5,2.6-1.3C-228.1,410.3-226.1,402.8-228,394.5z"/>
	<path class="st0" d="M-239.1,379.9L-239.1,379.9c0.1-0.4,0-0.6-0.3-0.8c-8.5-5.4-22.3-4.8-30.4,5.6c-7.5,9.6-5.5,22.4,0.7,28.7
		c0.1,0.1,0.3,0.2,0.4,0.2c0.1,0,0.2,0,0.3-0.1c0.3-0.1,0.4-0.4,0.3-0.6c-0.1-0.3-0.2-0.5-0.4-0.7c-2.3-3.1-3.6-6.6-3.9-10.3
		c-0.6-7.4,1.9-13.3,7.4-17.6c6.1-4.9,13.4-5.9,20.9-2.8c1.3,0.5,2.4,1.1,2.4,1.1c0.3,0.1,0.5,0.1,0.7-0.2c0,0,0.8-1,1.8-2.1
		C-239.2,380.2-239.1,380-239.1,379.9z"/>
</g>
<path class="st0" d="M-235.5,379.9c0.4,0.4,0.7,0.7,1.1,1.1c-1.3,1.6-2.5,3.2-3.9,4.8c-3.4,4.3-6.9,8.6-10.3,12.9
	c-0.2,0.3-0.4,0.6-0.4,1c-0.2,1.6-1.4,2.8-2.9,2.8s-2.7-1.1-3-2.5c-0.2-1.4,0.8-2.7,2.2-3.2c0.5-0.2,1.1-0.5,1.6-0.9
	c4.9-5,9.7-10,14.6-15.1C-236.1,380.4-235.8,380.3-235.5,379.9z"/>
</svg>
