<?xml version="1.0" encoding="utf-8"?>
<!-- Generator: Adobe Illustrator 19.0.1, SVG Export Plug-In . SVG Version: 6.00 Build 0)  -->
<!DOCTYPE svg PUBLIC "-//W3C//DTD SVG 1.1//EN" "http://www.w3.org/Graphics/SVG/1.1/DTD/svg11.dtd">
<svg version="1.1" id="Layer_1" xmlns="http://www.w3.org/2000/svg" xmlns:xlink="http://www.w3.org/1999/xlink" x="0px" y="0px"
	 viewBox="-278 370 54 54" style="enable-background:new -278 370 54 54;" xml:space="preserve">
<style type="text/css">
	.st0{fill:#FAA31A;}
</style>
<path class="st0" d="M-257.2,397c0-0.3,0-0.7,0.1-1l-0.7-0.2c-0.2-0.1-0.3-0.3-0.2-0.5l0.3-1.1c0.1-0.2,0.3-0.3,0.4-0.3l0.7,0.2
	c0.3-0.6,0.7-1.2,1.2-1.7l-0.4-0.5c-0.1-0.2-0.1-0.3,0.1-0.5l1-0.7c0.2-0.1,0.3-0.1,0.5,0.1l0.3,0.5c0.6-0.3,1.4-0.5,1.9-0.6v-0.7
	c0-0.2,0.3-0.3,0.4-0.3h1.2c0.2,0,0.4,0.2,0.4,0.3v0.7c0.8,0.1,1.3,0.3,1.9,0.6l0.3-0.5c0.1-0.2,0.3-0.2,0.4-0.1l1,0.7
	c0.2,0.1,0.2,0.3,0.1,0.5l-0.3,0.5c0.5,0.5,0.9,1,1.2,1.7l0.6-0.2c0.2-0.1,0.3,0,0.4,0.3l0.3,1.1c0.1,0.2,0,0.3-0.3,0.4l-0.6,0.2
	c0.1,0.3,0.1,0.7,0.1,1s0,0.7-0.1,1l0.6,0.2c0.2,0.1,0.3,0.3,0.3,0.4l-0.3,1.1c-0.1,0.2-0.3,0.3-0.4,0.3l-0.6-0.2
	c-0.3,0.6-0.7,1.1-1.2,1.7l0.4,0.5c0.1,0.2,0.1,0.3-0.1,0.5l-1,0.7c-0.2,0.1-0.3,0.1-0.5-0.1l-0.3-0.5c-0.6,0.3-1.1,0.5-1.9,0.6v0.7
	c0,0.2-0.2,0.4-0.4,0.4h-1.2c-0.2,0-0.4-0.3-0.4-0.4v-0.7c-0.5-0.1-1.3-0.3-1.9-0.6l-0.5,0.5c-0.1,0.2-0.3,0.2-0.4,0.1l-1-0.7
	c-0.2-0.1-0.2-0.3-0.1-0.5l0.4-0.6c-0.4-0.4-0.9-1-1.2-1.7l-0.7,0.3c-0.2,0.1-0.3,0-0.4-0.3l-0.3-1.1c-0.1-0.2,0-0.3,0.3-0.4
	l0.7-0.3C-257.2,397.7-257.2,397.4-257.2,397z M-255.1,397c0,2.3,1.8,4.2,4.2,4.2s4.2-1.8,4.2-4.2c0-2.3-1.8-4.2-4.2-4.2
	S-255.1,394.6-255.1,397z"/>
<g>
	<path class="st0" d="M-232.3,376.1c-3.7-0.1-7.3-0.1-10.9,0c-1.2,0-2.2,1.1-2.1,2.3c0.1,1.1,1,2,2.3,2c1.4,0,5.4,0,5.4,0
		s-4.8,5-7.8,8c1,1,2,2,3.1,3.2c3.1-3.1,4.5-4.7,7.7-8.1c0,0.5,0,0.8,0,1.1c0,1.5,0,3,0,4.5c0,1.3,1,2.3,2.2,2.2
		c1.2,0,2.1-1,2.1-2.2c0-3.7,0-7.3,0-10.9C-230.3,377.1-231.2,376.1-232.3,376.1z"/>
	<path class="st0" d="M-269.9,376.1c3.6-0.1,7.3-0.1,10.8,0c1.2,0,2.2,1.1,2.1,2.3c-0.1,1.1-1,2-2.3,2c-1.4,0-5.4,0-5.4,0
		s4.9,4.8,8,7.9c-1,1-2,2-3.1,3.2c-3.1-3.1-4.5-4.6-7.9-8c0,0.5,0,0.8,0,1.1c0,1.5,0,3,0,4.5c0,1.3-1,2.3-2.2,2.2
		c-1.2,0-2.1-1-2.1-2.2c0-3.7,0-7.3,0-10.9C-271.9,377.1-271.1,376.1-269.9,376.1z"/>
	<path class="st0" d="M-269.9,418c3.6,0.1,7.3,0.1,10.8,0c1.2,0,2.2-1.1,2.1-2.3c-0.1-1.2-1-2-2.3-2.1c-1.4,0-5.4,0-5.4,0
		s5.2-5.1,8.2-8.1c-1-1-2-2-3.1-3.2c-3.1,3.1-4.8,4.9-8.1,8.2c0-0.5,0-0.8,0-1.1c0-1.5,0-3,0-4.5c0-1.3-1-2.3-2.2-2.2
		c-1.2,0-2.1,1-2.1,2.2c0,3.7,0,7.3,0,10.9C-271.9,417-271.1,418-269.9,418z"/>
	<path class="st0" d="M-232.3,418c-3.6,0.1-7.3,0.1-10.8,0c-1.2,0-2.2-1.1-2.1-2.3c0.1-1.2,1-2,2.3-2.1c1.4,0,5.4,0,5.4,0
		s-4.9-5.1-8-8.1c1-1,2-2,3.1-3.2c3.1,3.1,4.5,4.9,7.9,8.2c0-0.5,0-0.8,0-1.1c0-1.5,0-3,0-4.5c0-1.3,1-2.3,2.2-2.2
		c1.2,0,2.1,1,2.1,2.2c0,3.7,0,7.3,0,10.9C-230.3,417-231.2,418-232.3,418z"/>
</g>
</svg>
