<?xml version="1.0" encoding="utf-8"?>
<!-- Generator: Adobe Illustrator 19.0.1, SVG Export Plug-In . SVG Version: 6.00 Build 0)  -->
<!DOCTYPE svg PUBLIC "-//W3C//DTD SVG 1.1//EN" "http://www.w3.org/Graphics/SVG/1.1/DTD/svg11.dtd">
<svg version="1.1" id="Layer_1" xmlns="http://www.w3.org/2000/svg" xmlns:xlink="http://www.w3.org/1999/xlink" x="0px" y="0px"
	 viewBox="-278 370 54 54" style="enable-background:new -278 370 54 54;" xml:space="preserve">
<style type="text/css">
	.st0{fill:#FAA31A;}
</style>
<g>
	<path class="st0" d="M-239.7,418.9c-0.7,0-1.3,0-2,0c-1.9-0.1-3.2-1.4-3.2-3.2c0-1.3,0-2.7,0-4c0-2,1.3-3.3,3.2-3.4
		c1.4-0.1,2.8-0.1,4.2,0c1.9,0.1,3.1,1.4,3.2,3.3c0.1,1.3,0.1,2.7,0,4c-0.1,2-1.4,3.3-3.4,3.3C-238.4,418.9-239.1,418.9-239.7,418.9
		z M-237.4,413.5c0-2.1,0-2.1-2.1-2.1c-2.3,0-2.3,0-2.3,2.3c0,2.1,0,2.1,2.1,2.1C-237.4,415.7-237.4,415.7-237.4,413.5z"/>
	<path class="st0" d="M-264.3,392.6c0,0.7,0,1.3,0,2c-0.1,1.7-1.3,3.1-3.1,3.1c-1.5,0.1-2.9,0.1-4.4,0c-1.8-0.1-3.1-1.4-3.1-3.2
		c0-1.3,0-2.8,0-4.1c0.1-1.7,1.2-3,2.9-3.2c1.5-0.1,3.1-0.1,4.6,0c1.9,0.1,3,1.4,3.1,3.4C-264.3,391.3-264.3,391.9-264.3,392.6
		L-264.3,392.6z M-267.4,392.5c0-2.2,0-2.2-2.3-2.2c-2.1,0-2.1,0-2.1,2.1c0,2.3,0,2.3,2.2,2.3C-267.4,394.8-267.4,394.8-267.4,392.5
		z"/>
	<path class="st0" d="M-245.9,398.7c0,2.9-2.3,5.2-5.2,5.2c-3,0-5.2-2.3-5.2-5.2c0-2.9,2.3-5.2,5.2-5.2
		C-248.2,393.3-245.9,395.7-245.9,398.7z M-251.2,400.8c1.2,0,2.2-0.9,2.2-2.1s-0.9-2.2-2.1-2.2c-1.3,0-2.2,0.9-2.2,2.2
		C-253.4,399.9-252.5,400.8-251.2,400.8z"/>
	<path class="st0" d="M-245.8,380.3c0,0.7,0,1.3,0,2c-0.1,1.7-1.3,3.1-3.1,3.1c-1.5,0.1-2.9,0.1-4.4,0c-1.8-0.1-3.1-1.4-3.1-3.2
		c0-1.3,0-2.8,0-4.1c0.1-1.7,1.2-3,2.9-3.2c1.5-0.1,3.1-0.1,4.6,0c1.9,0.1,3,1.4,3.1,3.4C-245.8,379-245.8,379.7-245.8,380.3
		L-245.8,380.3z M-248.9,380.2c0-2.2,0-2.2-2.3-2.2c-2.1,0-2.1,0-2.1,2.1c0,2.3,0,2.3,2.2,2.3C-248.9,382.4-248.9,382.4-248.9,380.2
		z"/>
	<path class="st0" d="M-227,394.9c0,0.7,0,1.3,0,2c-0.1,1.7-1.3,3.1-3.1,3.1c-1.5,0.1-2.9,0.1-4.4,0c-1.8-0.1-3.1-1.4-3.1-3.2
		c0-1.3,0-2.8,0-4.1c0.1-1.7,1.2-3,2.9-3.2c1.5-0.1,3.1-0.1,4.6,0c1.9,0.1,3,1.4,3.1,3.4C-227,393.6-227,394.3-227,394.9L-227,394.9
		z M-230.1,394.9c0-2.2,0-2.2-2.3-2.2c-2.1,0-2.1,0-2.1,2.1c0,2.3,0,2.3,2.2,2.3C-230.1,397.1-230.1,397.1-230.1,394.9z"/>
	<path class="st0" d="M-258.2,413.6c0,0.7,0,1.3,0,2c-0.1,1.7-1.3,3.1-3.1,3.1c-1.5,0.1-2.9,0.1-4.4,0c-1.8-0.1-3.1-1.4-3.1-3.2
		c0-1.3,0-2.8,0-4.1c0.1-1.7,1.2-3,2.9-3.2c1.5-0.1,3.1-0.1,4.6,0c1.9,0.1,3,1.4,3.1,3.4C-258.2,412.4-258.2,413-258.2,413.6
		L-258.2,413.6z M-261.3,413.5c0-2.2,0-2.2-2.3-2.2c-2.1,0-2.1,0-2.1,2.1c0,2.3,0,2.3,2.2,2.3S-261.3,415.7-261.3,413.5z"/>
	<path class="st0" d="M-258.2,408L-258.2,408c-0.4-0.4-0.5-0.9-0.3-1.2l1.6-2.4c0.3-0.4,0.8-0.4,1.2-0.2l0.1,0.1
		c0.4,0.3,0.4,0.8,0.2,1.2l-1.6,2.4C-257.2,408.1-257.8,408.2-258.2,408z"/>
	<path class="st0" d="M-244.3,407.9L-244.3,407.9c-0.4,0.4-1,0.3-1.2-0.1l-1.8-2.2c-0.3-0.4-0.2-0.9,0.2-1.2l0.1-0.1
		c0.4-0.3,0.9-0.2,1.2,0.2l1.8,2.2C-243.9,407.1-244,407.7-244.3,407.9z"/>
	<path class="st0" d="M-240.2,394.1L-240.2,394.1c0.2,0.4-0.1,1-0.5,1.2l-2.6,0.9c-0.4,0.2-1-0.1-1.2-0.5l0,0
		c-0.2-0.4,0.1-1,0.5-1.2l2.6-0.9C-240.9,393.4-240.4,393.7-240.2,394.1z"/>
	<path class="st0" d="M-251,387.4L-251,387.4c0.5,0,0.9,0.4,0.9,0.8v2.8c0,0.4-0.4,0.8-0.8,0.8h-0.1c-0.4,0-0.8-0.4-0.8-0.8v-2.8
		C-251.8,387.7-251.4,387.4-251,387.4z"/>
	<path class="st0" d="M-262,393.7L-262,393.7c0.3-0.5,0.8-0.6,1.2-0.4l2.5,1.4c0.4,0.2,0.5,0.7,0.4,1.2l-0.1,0.1
		c-0.2,0.4-0.7,0.5-1.2,0.4l-2.5-1.5C-262.1,394.6-262.2,394.1-262,393.7z"/>
</g>
</svg>
