<?xml version="1.0" encoding="utf-8"?>
<!-- Generator: Adobe Illustrator 19.0.1, SVG Export Plug-In . SVG Version: 6.00 Build 0)  -->
<!DOCTYPE svg PUBLIC "-//W3C//DTD SVG 1.1//EN" "http://www.w3.org/Graphics/SVG/1.1/DTD/svg11.dtd">
<svg version="1.1" id="Layer_1" xmlns="http://www.w3.org/2000/svg" xmlns:xlink="http://www.w3.org/1999/xlink" x="0px" y="0px"
	 viewBox="-278 370 54 54" style="enable-background:new -278 370 54 54;" xml:space="preserve">
<style type="text/css">
	.st0{fill:#F9A31A;}
</style>
<g>
	<path class="st0" d="M-266.1,394c0-0.6,0.1-1.2,0.2-1.8l-1.2-0.4c-0.4-0.1-0.4-0.4-0.4-0.7l0.6-2c0.1-0.4,0.4-0.4,0.7-0.4l1.2,0.4
		c0.5-1.1,1.2-2,2-2.8l-0.7-1c-0.2-0.3-0.2-0.6,0.1-0.8l1.6-1.2c0.3-0.2,0.6-0.2,0.8,0.1l0.6,1c1.1-0.5,2.4-0.9,3.3-1.1v-1.2
		c0-0.4,0.4-0.6,0.7-0.6h2c0.4,0,0.7,0.4,0.7,0.6v1.2c1.3,0.2,2.2,0.5,3.3,1.1l0.6-0.9c0.2-0.3,0.5-0.4,0.8-0.1l1.6,1.2
		c0.3,0.2,0.4,0.5,0.1,0.8l-0.6,0.9c0.9,0.8,1.6,1.8,2.1,2.8l1.1-0.4c0.4-0.1,0.6,0.1,0.7,0.4l0.6,2c0.1,0.4-0.1,0.6-0.4,0.7l-1,0.4
		c0.1,0.5,0.2,1.2,0.2,1.8s-0.1,1.2-0.2,1.8l1.1,0.4c0.4,0.1,0.4,0.4,0.4,0.7l-0.6,2c-0.1,0.4-0.4,0.4-0.7,0.4l-1.1-0.4
		c-0.5,1.1-1.2,2-2,2.8l0.7,1c0.2,0.3,0.2,0.6-0.1,0.8l-1.6,1.2c-0.3,0.2-0.6,0.2-0.8-0.1l-0.6-1c-1.1,0.5-2,0.9-3.3,1.1v1.2
		c0,0.4-0.4,0.8-0.7,0.8h-2c-0.4,0-0.7-0.4-0.7-0.8v-1.2c-0.9-0.2-2.2-0.5-3.3-1.1l-0.7,1.1c-0.2,0.3-0.5,0.4-0.8,0.1l-1.6-1.2
		c-0.3-0.2-0.4-0.5-0.1-0.8l0.8-1.1c-0.8-0.8-1.5-1.8-2-2.8l-1.2,0.4c-0.4,0.1-0.6-0.1-0.7-0.4l-0.6-2c-0.1-0.4,0.1-0.6,0.4-0.7
		l1.2-0.4C-266.1,395.1-266.1,394.6-266.1,394z M-262.6,394c0,3.9,3.2,7.1,7.1,7.1s7.1-3.2,7.1-7.1s-3.2-7.1-7.1-7.1
		S-262.6,390.1-262.6,394z"/>
	<path class="st0" d="M-246,404.9c0-0.3,0-0.5,0.1-0.8l-0.5-0.2c-0.2-0.1-0.3-0.2-0.2-0.4l0.3-0.9c0.1-0.2,0.2-0.3,0.4-0.2l0.5,0.2
		c0.3-0.5,0.6-1,1-1.3l-0.4-0.4c-0.1-0.1-0.1-0.3,0.1-0.4l0.8-0.5c0.1-0.1,0.3-0.1,0.4,0.1l0.3,0.4c0.5-0.3,1.2-0.4,1.6-0.5v-0.5
		c0-0.2,0.2-0.3,0.4-0.3h1c0.2,0,0.4,0.2,0.4,0.3v0.5c0.6,0.1,1.1,0.3,1.6,0.5l0.3-0.4c0.1-0.1,0.3-0.2,0.4-0.1l0.8,0.5
		c0.1,0.1,0.2,0.3,0.1,0.4l-0.3,0.4c0.4,0.4,0.7,0.9,1,1.3l0.5-0.2c0.2-0.1,0.3,0,0.4,0.2l0.3,0.9c0.1,0.2,0,0.3-0.2,0.4l-0.5,0.2
		c0,0.3,0.1,0.5,0.1,0.8c0,0.3,0,0.5-0.1,0.9l0.5,0.2c0.2,0.1,0.3,0.2,0.2,0.4l-0.3,0.9c-0.1,0.2-0.2,0.3-0.4,0.2l-0.5-0.2
		c-0.3,0.5-0.6,1-1,1.3l0.4,0.4c0.1,0.1,0.1,0.3-0.1,0.4l-0.8,0.5c-0.1,0.1-0.3,0.1-0.4-0.1l-0.4-0.4c-0.5,0.3-1,0.4-1.6,0.5v0.5
		c0,0.2-0.2,0.4-0.4,0.4h-1c-0.2,0-0.4-0.2-0.4-0.4V410c-0.4-0.1-1.1-0.3-1.6-0.5l-0.4,0.5c-0.1,0.1-0.3,0.2-0.4,0.1l-0.6-0.6
		c-0.1-0.1-0.2-0.3-0.1-0.4l0.4-0.5c-0.4-0.4-0.7-0.8-1-1.3l-0.5,0.2c-0.2,0.1-0.3,0-0.4-0.2l-0.3-0.9c-0.1-0.2,0-0.3,0.2-0.4
		l0.5-0.2C-246,405.4-246,405.2-246,404.9z M-244.3,404.9c0,1.9,1.5,3.4,3.4,3.4c1.9,0,3.4-1.5,3.4-3.4c0-1.9-1.5-3.4-3.4-3.4
		C-242.7,401.5-244.3,403-244.3,404.9z"/>
	<g>
		<path class="st0" d="M-234.1,380c-4.4-4.5-10.5-7-16.9-7c-13.1,0.1-23.8,10.7-24,23.6c-0.2,13.2,10.5,24.2,23.5,24.3
			c0.1,0,0.3,0,0.4,0c6.3,0,12.3-2.4,16.8-6.8c4.6-4.5,7.1-10.5,7.1-16.8C-227,390.8-229.5,384.6-234.1,380z M-230.8,397
			c0,11.2-9.1,20.3-20.3,20.3l0,0c-5.3,0-10.4-2.1-14.3-6c-3.8-3.8-6-9-6-14.3c0-11.2,9.2-20.3,20.3-20.3l0,0
			C-239.8,376.7-230.8,385.8-230.8,397z"/>
	</g>
</g>
</svg>
