<?xml version="1.0" encoding="utf-8"?>
<!-- Generator: Adobe Illustrator 19.0.1, SVG Export Plug-In . SVG Version: 6.00 Build 0)  -->
<!DOCTYPE svg PUBLIC "-//W3C//DTD SVG 1.1//EN" "http://www.w3.org/Graphics/SVG/1.1/DTD/svg11.dtd">
<svg version="1.1" id="Layer_1" xmlns="http://www.w3.org/2000/svg" xmlns:xlink="http://www.w3.org/1999/xlink" x="0px" y="0px"
	 viewBox="-278 370 54 54" style="enable-background:new -278 370 54 54;" xml:space="preserve">
<style type="text/css">
	.st0{fill:#F9A31A;}
</style>
<g>
	<path class="st0" d="M-228,405.1l-0.2-0.2l0.1-0.3c0.6-2,0.8-4.1,0.8-6.2c0-11.1-7.9-20.8-18.8-23.1l-0.3-0.1l-0.1-0.2
		c-0.6-1.9-2.4-3.1-4.4-3.1c-2,0-3.8,1.3-4.4,3.1l-0.1,0.2l-0.3,0.1c-5.6,1.1-10.6,4.4-14.1,9.1l-0.2,0.2l-0.3-0.1
		c-0.4-0.1-0.8-0.2-1.2-0.2c-2.6,0-4.6,2.1-4.6,4.6c0,1.6,0.7,3.1,2,3.9l0.3,0.2l-0.1,0.3c-0.4,1.8-0.6,3.4-0.6,5.1
		c0,13,10.6,23.5,23.5,23.5c7.1,0,13.8-3.1,18.2-8.7l0.2-0.2l0.3,0.1c3,0.7,5.7-1.7,5.7-4.5C-226.4,407.3-226.9,406-228,405.1z
		 M-267,386.7c2.9-4,7-6.8,11.9-7.9l0.3-0.1l0.2,0.3c1.1,1.8,3.2,2.7,5.3,2h0.3l0.2,0.3c1.1,1.9,2,3.7,2.6,5.6
		c0.1,0.4,0.2,0.6,0.3,1l0.1,0.4l-0.4,0.1c-0.7,0.3-1.4,0.7-1.9,1.4l-0.2,0.2l-0.3-0.1c-7.3-2.4-14-1.6-17.4-0.9l-0.5,0.1v-0.5
		c0-0.6-0.2-1.1-0.4-1.6l-0.1-0.2L-267,386.7z M-267.4,391.6c0.1-0.1,0.2-0.3,0.3-0.5l0.1-0.2l0.2-0.1c2.7-0.7,9.6-2.1,17.3,0.5
		l0.4,0.1l-0.1,0.4c-0.1,0.3-0.1,0.6-0.1,0.9c0,1.9,1.1,3.5,2.8,4.3l0.4,0.2l-0.2,0.5c-0.8,2.9-2.3,5.4-4.2,7.3
		c-0.6,0.6-1.2,1.1-1.9,1.6l-0.3,0.3l-0.3-0.3c-0.9-1.1-2.2-1.8-3.6-1.8c-0.9,0-1.9,0.3-2.7,0.8l-0.3,0.2l-0.3-0.3
		c-1.1-1-2.1-2.2-3.1-3.4c-2.9-3.9-4.1-8.1-4.5-10.2L-267.4,391.6L-267.4,391.6z M-267.9,408.8h-0.2l-0.1-0.2
		c-1.8-3.1-2.7-6.6-2.7-10.1c0-1.5,0.2-3.1,0.6-4.5l0.1-0.3l0.3-0.1c0.2-0.1,0.4-0.1,0.6-0.2l0.5-0.2l0.1,0.5c0.6,2.4,1.9,6,4.5,9.5
		c0.6,0.9,1.8,2.3,3.3,3.8l0.2,0.2l-0.1,0.3c-0.3,0.6-0.5,1.1-0.5,1.8v0.4h-0.4c-0.1,0-0.1,0-0.2,0
		C-263.9,409.6-265.8,409.3-267.9,408.8z M-238.4,414.3c-3.5,2.8-7.8,4.3-12.3,4.3c-5.7,0-11.2-2.5-15.1-6.9l-0.7-0.8l1.1,0.2
		c1.4,0.2,2.7,0.4,3.9,0.3h0.6l0.1,0.3c0.8,1.6,2.4,2.6,4.2,2.6c1.4,0,2.8-0.6,3.6-1.8l0.2-0.3l0.3,0.1c4.3,1.7,8.8,2,13.8,1.3
		l1.6-0.3L-238.4,414.3z M-233.6,404.7c-1.3,0.8-2.1,2.3-2.1,3.9c0,0.6,0.1,1.3,0.4,1.9l0.2,0.5l-0.5,0.1c-2.7,0.7-5.3,1.1-7.8,1.1
		c-3,0-5.7-0.5-8.4-1.5l-0.3-0.1l0.1-0.4c0-0.3,0.1-0.6,0.1-0.7s0-0.5-0.1-0.7v-0.3l0.2-0.2c0.9-0.6,1.8-1.4,2.5-2.1
		c2.2-2.2,3.9-5.2,4.7-8.4l0.1-0.3h0.3c1-0.1,2-0.6,2.8-1.3l0.3-0.3l0.3,0.2c2.7,2.1,5.2,4.8,7.4,8l0.3,0.4L-233.6,404.7z
		 M-231.3,403.1l-0.2,0.9l-0.6-0.7c-2.3-3.5-5.1-6.4-8.1-8.7l-0.2-0.2l0.1-0.3c0.1-0.5,0.2-0.8,0.2-1.3c0-2.3-1.7-4.3-4-4.6h-0.3
		l-0.1-0.3c-0.1-0.6-0.3-1-0.4-1.5c-0.6-2-1.6-4.1-2.8-6l-0.2-0.3l0.3-0.3c0.3-0.3,0.5-0.6,0.6-0.8l0.2-0.3l0.2,0.2
		c9.1,2,15.6,10.3,15.6,19.5C-230.7,400.1-230.9,401.5-231.3,403.1z"/>
</g>
</svg>
