<?xml version="1.0" encoding="utf-8"?>
<!-- Generator: Adobe Illustrator 19.0.1, SVG Export Plug-In . SVG Version: 6.00 Build 0)  -->
<!DOCTYPE svg PUBLIC "-//W3C//DTD SVG 1.1//EN" "http://www.w3.org/Graphics/SVG/1.1/DTD/svg11.dtd">
<svg version="1.1" id="Layer_1" xmlns="http://www.w3.org/2000/svg" xmlns:xlink="http://www.w3.org/1999/xlink" x="0px" y="0px"
	 viewBox="-278 370 54 54" style="enable-background:new -278 370 54 54;" xml:space="preserve">
<style type="text/css">
	.st0{fill:#F9A31A;}
	.st1{fill-rule:evenodd;clip-rule:evenodd;fill:#F9A31A;}
</style>
<g>
	<path class="st0" d="M-232.3,412.4h-36.3v-21.7h0l17.6,10.9c0,0,0,0,0,0c0,0,0.1,0,0.1,0.1c0,0,0,0,0.1,0c0.1,0,0.1,0,0.2,0
		c0,0,0,0,0,0h0h0c0,0,0,0,0,0c0.1,0,0.1,0,0.2,0c0,0,0,0,0.1,0c0.1,0,0.1,0,0.2-0.1c0,0,0,0,0,0l17-10.9h0.7V412.4z M-250.4,399.9
		l-14.7-9.1h28.9L-250.4,399.9z M-231.1,387.2h-38.6c-1.3,0-2.4,1.1-2.4,2.4v24c0,1.3,1.1,2.4,2.4,2.4h38.6c1.3,0,2.4-1.1,2.4-2.4
		v-24C-228.8,388.3-229.8,387.2-231.1,387.2z"/>
	<polygon class="st1" points="-260.3,404.1 -256.1,404.1 -260.3,397.5 	"/>
	<path class="st0" d="M-249.8,377.2c-1.4,0-2.5,1.1-2.5,2.5s1.1,2.5,2.5,2.5s2.5-1.1,2.5-2.5S-248.5,377.2-249.8,377.2z
		 M-249.8,374.4c2.9,0,5.3,2.4,5.3,5.3c0,2.9-2.4,5.3-5.3,5.3c-2.9,0-5.3-2.4-5.3-5.3C-255.1,376.7-252.8,374.4-249.8,374.4z"/>
	<path class="st0" d="M-248.4,384.7v19.9c0,0,0,0.4-0.1,1.1c-0.5,3.2-2.5,5.8-6.2,5.8c-4.4,0-5.9-3.9-5.5-8.1l2.8,0.4
		c0,0,0,0.3,0,0.8c0.1,1.7,0.5,4,2.8,4c2.3,0,3.4-2,3.4-4v-19.9H-248.4z"/>
</g>
</svg>
