<?xml version="1.0" encoding="utf-8"?>
<!-- Generator: Adobe Illustrator 19.0.1, SVG Export Plug-In . SVG Version: 6.00 Build 0)  -->
<!DOCTYPE svg PUBLIC "-//W3C//DTD SVG 1.1//EN" "http://www.w3.org/Graphics/SVG/1.1/DTD/svg11.dtd">
<svg version="1.1" id="Layer_1" xmlns="http://www.w3.org/2000/svg" xmlns:xlink="http://www.w3.org/1999/xlink" x="0px" y="0px"
	 viewBox="-278 370 54 54" style="enable-background:new -278 370 54 54;" xml:space="preserve">
<style type="text/css">
	.st0{fill-rule:evenodd;clip-rule:evenodd;fill:#F9A31A;}
	.st1{fill:none;stroke:#F9A31A;stroke-width:1.59;stroke-miterlimit:10;}
</style>
<path class="st0" d="M-231.2,398.2c0.7,1.8,1.1,3.5,1.1,5.3c0,1.8-0.4,3.5-1.2,5.3h-2.6c-0.6,0-1,0.1-1.3,0.3
	c-0.3,0.2-0.8,0.8-1.4,1.7l-0.6,0.8c-0.7,0.9-1.2,1.6-1.4,1.9l-4.1,4.4l-1.1,4.9l-0.6-0.2c-2.3-0.5-3.5-1.9-3.5-4.1
	c0-0.8,0.4-1.9,1.2-3.4l0.3-0.6c0.7-1.2,1.1-2.5,1.2-3.9h-0.6c-2.2,0-3.9-0.4-5.2-1.1c-1.3-0.7-2-1.7-2-2.9c0-1.1,0.4-2,1.2-2.9
	c-0.3-0.5-0.5-1-0.5-1.5c0-1.1,0.6-1.9,1.8-2.2c0-0.3-0.1-0.5-0.1-0.6c0-1.4,0.8-2.1,2.4-2.3c0-0.2,0-0.3,0-0.4
	c0-0.8,0.3-1.4,0.8-1.7c0.5-0.4,1.4-0.6,2.4-0.6h1l0.8,0.4c1-0.3,1.8-0.4,2.6-0.4c0.3,0,0.7,0,1.2,0.1c1.8,0.8,3.4,2.1,5,3.9H-231.2
	z"/>
<path class="st1" d="M-271,396c-0.7-1.8-1.1-3.5-1.1-5.3c0-1.8,0.4-3.5,1.2-5.3h2.6c0.6,0,1-0.1,1.3-0.3c0.3-0.2,0.8-0.8,1.4-1.7
	l0.6-0.8c0.7-0.9,1.2-1.6,1.4-1.9l4.1-4.4l1.1-4.9l0.6,0.2c2.3,0.5,3.5,1.9,3.5,4.1c0,0.8-0.4,1.9-1.2,3.4l-0.3,0.6
	c-0.7,1.2-1.1,2.5-1.2,3.9h0.6c2.2,0,3.9,0.4,5.2,1.1c1.3,0.7,2,1.7,2,2.9c0,1.1-0.4,2-1.2,2.9c0.3,0.5,0.5,1,0.5,1.5
	c0,1.1-0.6,1.9-1.8,2.2c0,0.3,0.1,0.5,0.1,0.6c0,1.4-0.8,2.1-2.4,2.3c0,0.2,0,0.3,0,0.4c0,0.8-0.3,1.4-0.8,1.7
	c-0.5,0.4-1.4,0.6-2.4,0.6h-1l-0.8-0.4c-1,0.3-1.8,0.4-2.6,0.4c-0.3,0-0.7,0-1.2-0.1c-1.8-0.8-3.4-2.1-5-3.9H-271z"/>
</svg>
