<?xml version="1.0" encoding="utf-8"?>
<!-- Generator: Adobe Illustrator 19.0.1, SVG Export Plug-In . SVG Version: 6.00 Build 0)  -->
<svg version="1.1" id="Layer_1" xmlns="http://www.w3.org/2000/svg" xmlns:xlink="http://www.w3.org/1999/xlink" x="0px" y="0px"
	 viewBox="0 0 54 54" style="enable-background:new 0 0 54 54;" xml:space="preserve">
<style type="text/css">
	.st0{fill:#FAA31A;}
</style>
<g>
	<path class="st0" d="M14.7,31.6h-2.6l-1.3,1.6l-1.3-1.6H6.8c-1.4,0-2.6,1-2.6,2.1v8.9c0,0.9,0.7,1.7,1.8,2l1.1,7.3
		c0,1.2,1.2,2.1,2.6,2.1h1.9c1.4,0,2.6-0.9,2.6-2.1l1.1-7.3c1.1-0.2,2-1.1,2-2.1v-8.9C17.3,32.6,16.2,31.6,14.7,31.6z M14.6,33.9
		v8.6h-1.6l-1.4,9.2l-1.7,0l-1.4-9.2H7v-8.6h1l2.8,3.3l2.8-3.3H14.6z"/>
	<path class="st0" d="M10.8,31c2.2,0,4-1.7,4-3.9c0-2.1-1.8-3.9-4-3.9s-4,1.7-4,3.9C6.7,29.3,8.5,31,10.8,31z M9.5,27.2
		c0-0.9,0.6-1.6,1.3-1.6c0.7,0,1.3,0.8,1.3,1.6c0,0.9-0.6,1.6-1.3,1.6C10.1,28.8,9.5,28,9.5,27.2z"/>
	<path class="st0" d="M31,8.3h-2.6l-1.3,1.6l-1.3-1.6h-2.6c-1.4,0-2.6,1-2.6,2.1v8.9c0,0.9,0.7,1.7,1.8,2l1.1,7.3
		c0,1.2,1.2,2.1,2.6,2.1H28c1.4,0,2.6-0.9,2.6-2.1l1.1-7.3c1.1-0.2,2-1.1,2-2.1v-8.9C33.7,9.3,32.5,8.3,31,8.3z M30.9,10.6v8.6h-1.6
		l-1.4,9.2l-1.7,0l-1.4-9.2h-1.5v-8.6h1l2.8,3.3l2.8-3.3H30.9z"/>
	<path class="st0" d="M27.1,7.7c2.2,0,4-1.7,4-3.9c0-2.1-1.8-3.9-4-3.9s-4,1.7-4,3.9C23.1,6,24.9,7.7,27.1,7.7z M25.8,3.9
		c0-0.9,0.6-1.6,1.3-1.6c0.7,0,1.3,0.8,1.3,1.6c0,0.9-0.6,1.6-1.3,1.6C26.4,5.5,25.8,4.7,25.8,3.9z"/>
	<path class="st0" d="M47.4,31.6h-2.6l-1.3,1.6l-1.3-1.6h-2.6c-1.4,0-2.6,1-2.6,2.1v8.9c0,0.9,0.7,1.7,1.8,2l1.1,7.3
		c0,1.2,1.2,2.1,2.6,2.1h1.9c1.4,0,2.6-0.9,2.6-2.1l1.1-7.3c1.1-0.2,2-1.1,2-2.1v-8.9C50,32.6,48.8,31.6,47.4,31.6z M47.2,33.9v8.6
		h-1.6l-1.4,9.2l-1.7,0l-1.4-9.2h-1.5v-8.6h1l2.8,3.3l2.8-3.3H47.2z"/>
	<path class="st0" d="M43.4,31c2.2,0,4-1.7,4-3.9c0-2.1-1.8-3.9-4-3.9s-4,1.7-4,3.9C39.4,29.3,41.2,31,43.4,31z M42.1,27.2
		c0-0.9,0.6-1.6,1.3-1.6c0.7,0,1.3,0.8,1.3,1.6c0,0.9-0.6,1.6-1.3,1.6C42.8,28.8,42.1,28,42.1,27.2z"/>
	<path class="st0" d="M33.6,41.6l-5.4-3.8V33c0-0.6-0.5-1-1.1-1c-0.6,0-1.1,0.5-1.1,1v4.7l-5.2,3.8c-0.5,0.4-0.6,1-0.2,1.4
		c0.4,0.4,1.1,0.5,1.6,0.1l4.9-3.6l5.1,3.6c0.2,0.1,0.5,0.2,0.7,0.2c0.3,0,0.7-0.1,0.9-0.4C34.2,42.6,34.1,41.9,33.6,41.6z"/>
</g>
</svg>
