<?xml version="1.0" encoding="utf-8"?>
<!-- Generator: Adobe Illustrator 19.0.1, SVG Export Plug-In . SVG Version: 6.00 Build 0)  -->
<svg version="1.1" id="Layer_1" xmlns="http://www.w3.org/2000/svg" xmlns:xlink="http://www.w3.org/1999/xlink" x="0px" y="0px"
	 viewBox="0 0 54 54" style="enable-background:new 0 0 54 54;" xml:space="preserve">
<style type="text/css">
	.st0{fill:#F9A31A;}
</style>
<path class="st0" d="M44.2,32c0,4.8-4.5,9.4-7.1,11.8c-4.2,3.7-8.5,5.7-9.7,5.9c-1.2-0.3-5.5-2.3-9.7-5.9c-2.7-2.3-7.1-6.9-7.1-11.8
	V10.6c6-0.6,11.8-2.5,16.9-5.4c5.3,3.1,10.9,4.9,16.9,5.5V32z M48.2,6.6c-7.4,0-14.5-2.2-20.8-6.5C21,4.4,13.4,6.5,6.2,6.6v0V32
	c0,11.7,17.1,22,21.2,22c4,0,21.2-10.3,21.2-22V6.6v0C48.4,6.6,48.3,6.6,48.2,6.6z"/>
<g>
	<path class="st0" d="M41.8,13.1c-5.2-0.1-10-1.6-14.5-4.5c-4.2,2.7-9.3,4.3-14.5,4.5v17.6c0,7.9,11.8,15.1,14.5,15.1
		c2.7,0,14.5-7.2,14.5-15.1V13.1z M40.2,30.6c0,3.8-3.4,7.3-5.4,9c-3.2,2.8-6.4,4.2-7.3,4.4l-0.2,0l-0.2,0c-0.9-0.2-4.1-1.6-7.3-4.4
		c-2-1.8-5.4-5.3-5.4-9V14.6l0.7-0.1c4.2-0.5,8.3-1.8,11.8-3.8l0.4-0.2l0.4,0.2c3.7,2.2,7.7,3.5,11.8,3.9l0.7,0.1V30.6z"/>
</g>
</svg>
