<?xml version="1.0" encoding="utf-8"?>
<!-- Generator: Adobe Illustrator 19.0.1, SVG Export Plug-In . SVG Version: 6.00 Build 0)  -->
<!DOCTYPE svg PUBLIC "-//W3C//DTD SVG 1.1//EN" "http://www.w3.org/Graphics/SVG/1.1/DTD/svg11.dtd">
<svg version="1.1" id="Layer_1" xmlns="http://www.w3.org/2000/svg" xmlns:xlink="http://www.w3.org/1999/xlink" x="0px" y="0px"
	 viewBox="-278 370 54 54" style="enable-background:new -278 370 54 54;" xml:space="preserve">
<style type="text/css">
	.st0{fill:#FAA31A;}
</style>
<g>
	<g>
		<g>
			<path class="st0" d="M-231.1,393.5c0.3,0.3,0.5,0.7,0.7,1c0.7,1.2,0.9,2.4,0.8,3.7c-0.2,1.1-0.6,2.1-1.3,3
				c-0.7,0.8-1.6,1.5-2.7,1.8c-1,0.3-2,0.4-3.1,0.3c-0.9-0.2-1.7-0.5-2.4-1c-0.8-0.5-1.3-1.2-1.8-1.9c-0.2-0.3-0.3-0.6-0.3-0.8
				c-0.1-0.1-0.1-0.2-0.3-0.2c-2.1,0-6.4,0-6.4,0v3.2h-4.3l0,0c0-0.8,0-2.9,0-3.1c-0.4,0-0.9,0-1.3,0c-0.8,0-1.4-0.3-1.8-1
				c-0.3-0.5-0.3-1,0-1.5c0.3-0.8,0.9-1.1,1.7-1.2c2.7,0,10.7-0.1,12-0.1c0.1,0,0.2,0,0.2-0.2c0.2-0.6,0.5-1.2,0.8-1.6
				c0.5-0.7,1.1-1.2,1.8-1.6c0.9-0.6,1.9-0.8,3-0.8c1.3,0,2.5,0.4,3.5,1.2c0.1,0.1,0.3,0.2,0.3,0.3
				C-231.5,393.1-231.4,393.2-231.1,393.5z M-232.9,400.1c1.5-1.5,1.5-3.9,0-5.5c-1.5-1.5-3.9-1.4-5.5,0.1c-1.5,1.5-1.4,3.9,0.1,5.5
				C-236.8,401.6-234.4,401.6-232.9,400.1z"/>
		</g>
	</g>
	<g>
		<rect x="-263.7" y="389.3" class="st0" width="20.8" height="2.3"/>
		<rect x="-263.7" y="382.7" class="st0" width="20.8" height="2.3"/>
		<path class="st0" d="M-263.7,395.9v2.3h6.5c-0.1-0.8,0-1.5,0.3-2.3H-263.7z"/>
		<polygon class="st0" points="-242.9,402.5 -246.3,402.5 -246.3,402.5 -246.2,402.5 -246.2,404.7 -242.9,404.7 		"/>
		<polygon class="st0" points="-253.8,402.5 -263.7,402.5 -263.7,404.7 -253.8,404.7 		"/>
		<rect x="-263.7" y="409.1" class="st0" width="20.8" height="2.3"/>
		<path class="st0" d="M-235,388.9v-10.7c0-2.1-1.7-3.9-3.8-3.9h-10h-2.2h-4.7h-2.2h-10c-2,0-3.7,1.8-3.7,3.9v37.6
			c0,2.1,1.7,3.9,3.8,3.9h29c2.1,0,3.8-1.8,3.8-3.9v-10.1c-0.4,0-0.8-0.1-1.2-0.1c-0.8-0.2-1.5-0.4-2.2-0.8v10.8
			c0,0.3-0.2,0.5-0.4,0.5h-29.1c-0.3,0-0.4-0.3-0.4-0.5v-37.5c0-0.3,0.3-0.5,0.4-0.5h3.5h21.9h3.5c0.3,0,0.5,0.2,0.5,0.5v11.6
			C-237.2,389.2-236.2,388.9-235,388.9z"/>
	</g>
</g>
</svg>
