<?xml version="1.0" encoding="utf-8"?>
<!-- Generator: Adobe Illustrator 19.0.1, SVG Export Plug-In . SVG Version: 6.00 Build 0)  -->
<svg version="1.1" id="Layer_1" xmlns="http://www.w3.org/2000/svg" xmlns:xlink="http://www.w3.org/1999/xlink" x="0px" y="0px"
	 viewBox="0 0 54 54" style="enable-background:new 0 0 54 54;" xml:space="preserve">
<style type="text/css">
	.st0{fill:#FAA31A;}
</style>
<g>
	<g>
		<path class="st0" d="M43.6,14.7c-0.3-2.3-1.1-4.6-2.3-6.6c-1.1-1.9-2.4-3.3-3.9-4.5c-5-3.8-10.5-4.6-16.4-2.5
			c-2.2,0.8-4.1,2.1-5.9,3.9c-2.5,2.6-4.1,5.7-4.6,9.3c-0.3,2-0.2,3.7,0.2,5.4c0.5,2,1.5,3.8,2.4,5.4l0.4,0.8c0.6,1,1.2,2,1.7,3
			c0.9,1.7,1.2,3.6,1.4,5.4c0.3,2.7,1.4,4.6,3.3,5.9c0.2,0.2,0.5,0.2,0.8,0.2c1.2,0,2.3,0,3.5,0c0.5,0,0.9,0,1.4,0l2.6,0
			c1.7,0,3.3,0,5,0c0.2,0,0.5,0,0.7-0.2l0.4-0.3c0.5-0.4,0.9-0.8,1.3-1.2c1.1-1.2,1.4-2.7,1.6-4c0.1-0.4,0.1-0.8,0.2-1.2
			c0.1-0.7,0.2-1.5,0.4-2.2c0.3-1.5,1-2.8,1.9-4.3c0.2-0.3,0.4-0.7,0.6-1c0.8-1.4,1.7-2.8,2.4-4.4C43.6,19.6,43.9,17.3,43.6,14.7z
			 M38.7,22.2l-0.8,1.3c-0.6,1.1-1.3,2.2-1.9,3.2c-1.1,1.9-1.7,4-1.9,6.2c-0.1,0.7-0.2,1.5-0.4,2.4c-0.1,0.7-0.5,1.2-0.9,1.6
			C32.6,37,32.5,37,32.4,37c-1.4,0-2.8,0-4.2,0L27,37l-1.2,0c-1.4,0-2.8,0-4.2,0c-0.1,0-0.2-0.1-0.3-0.1c-0.8-0.7-1-1.7-1.2-2.6
			l-0.1-0.5c-0.2-1.7-0.5-3.5-1.2-5.2c-0.7-1.6-1.6-3.1-2.5-4.7c-0.9-1.4-1.6-2.7-2.1-4.1c-0.7-1.9-0.7-4.1,0-6.5
			c0.5-1.9,1.3-3.5,2.6-5c2.4-2.8,5.4-4.4,8.9-4.7c6.5-0.6,12.4,3.5,14,9.8C40.6,16.6,40.2,19.5,38.7,22.2z"/>
	</g>
	<path class="st0" d="M21.2,45.8c-0.7,0-1.3-0.5-1.4-1.2c-0.1-0.8,0.2-1.4,1-1.7c0.3-0.1,0.7-0.1,1-0.1c2,0,9.3,0,10.9,0
		c0.9,0,1.5,0.4,1.6,1.2c0.2,0.9-0.5,1.8-1.4,1.8C30.9,45.8,23.2,45.8,21.2,45.8z"/>
	<path class="st0" d="M22.4,50.6c-0.9,0-1.5-0.6-1.5-1.4c0-0.8,0.6-1.5,1.5-1.5c3.1,0,6.1,0,9.2,0c0.9,0,1.5,0.6,1.5,1.5
		c0,0.9-0.6,1.5-1.6,1.5C30.1,50.6,24,50.6,22.4,50.6z"/>
	<path class="st0" d="M23.7,52.4c2.2,0,4.4,0,6.7,0c0.1,0.9-0.7,1.6-1.4,1.6c-1.3,0-2.5,0-3.8,0C24.4,54.1,23.7,53.3,23.7,52.4z"/>
</g>
</svg>
